<svg id="_图层_2" data-name="图层_2" xmlns="http://www.w3.org/2000/svg" viewBox="0 0 362.94 298.42"><defs><style>.cls-6{stroke-linecap:round;stroke-linejoin:round}.cls-11{fill:#fdfeff}.cls-6{stroke-width:4.03px;stroke:#393453;fill:none}.cls-15{fill:#bed7f0}</style></defs><g id="Layer_1"><g id="_生成式对象" data-name="生成式对象"><path class="cls-15" d="M60.34 78.89c1.38 4.35-8.82 6.53-18.65 17.89-21.32 24.65-23.17 58.58-4.03 85.17 4.02 5.59 9.24 7.12 6.55 10.63.17.05.33.15.5.2-.17-.05-.33-.15-.5-.2-52.83-16.24-55.94-85.15-6.55-108.55 8.65-4.1 13.87-4.24 22.68-5.14"/><path d="M259.27 195.81c-.72-2.22-1.25-3.75-2.89-5.54l-.17-.93c11.15-5.93 18.17-17.58 18.17-30.22 0-.74-.03-1.47-.08-2.21l-.78.1.74-.65a34.23 34.23 0 0 0-18.54-27.71c-.5-4.31 3.62-2.73 3.01-6.47-.45-2.78-2.92-6.99-4.87-9.01-.16-.17-.33-.34-.5-.5-8.8-8.67-22.83-6.38-29.13 4.03-.09.15-.11.35-.2.5-.68 1.22-2.27 4.96-2.21 6 .09 1.62 3.51 2.84 3.01 5.33A34.22 34.22 0 0 0 207 150.65c-.05.18-.09.36-.13.54a34.17 34.17 0 0 0 2.38 22.64c3.52 7.4 9.58 13.29 17.07 16.6.17.07.34.15.51.22-.17-.07-.34-.14-.51-.22l-1.21 1.21c-3.34 1-6.64 2.14-9.99 3.12-1.07.31-2.48.29-3.44 1.17-7.04-4.22-14.38-7.95-21.32-12.4-12.41-7.97-15.95-15.9-18.85-6.35-2.79 9.19 7.86 14.28 14.08 18.12l-.18 1.04c-3.36-.74-6.74-1.47-10.18-1.52l-117.4.4c-4.45-.52-8.79-1.14-13.1-2.42-.17-.05-.33-.15-.5-.2 2.69-3.51-2.53-5.04-6.55-10.63-19.13-26.59-17.29-60.52 4.03-85.17 9.83-11.36 20.02-13.54 18.65-17.89 2.88-.29 4.68.49 5.48-.61C73.5.61 168.14-25.65 212.52 39.1c42.85-18.97 83-.14 93.84 46.25 60.28 4.95 73.01 76.77 23.58 103.41-20.46 11.02-46.28 3.65-68.52 6.77l-2.16.28Z" style="fill:#98bae2"/><path d="M150.98 153.26c.2-.06.4-.12.6-.17 11.86-2.93 16.52 15.28 4.47 18.25-11.7 2.89-16.42-14.56-5.07-18.09Z" style="stroke-linecap:round;stroke-linejoin:round;stroke-width:3.53px;stroke:#2f2d48;fill:#fdfeff"/><path d="M243.59 193.16c4.25-.43 8.32-1.63 12.12-3.57l.66.68c1.65 1.79 2.17 3.32 2.89 5.54.97 3.01 6.94 36.02 8.06 43.1l-1.88.24H217.6c.21-3.93 3.23-20.47 2.49-22.43-.12-.31-4.04-1.2-2.02-5.47-8.18-3.72-20.35-9.32-27.88-13.5l-.6-.3c-.09-.05-.18-.09-.26-.14l-.63-.33c-.12-.07-.25-.13-.37-.2l-.4-.21c-.14-.08-.29-.15-.43-.23l-.44.4c-.55-.14-1.11-.28-1.66-.41l.18-1.04c-6.22-3.84-16.87-8.94-14.08-18.12 5.08 1.61 13.36 8.63 20.61 13.1 3.26 2.01 26.67 15.18 28.22 15.62 1.01.29 2.14.81 2.77-.25.64-3.03-1.21-3.48-3.02-4.79-.55-.39-1.2-.66-1.77-1.04.64-5.95 1.01-2.17 6.05-2.49 6.1-.39 12.85-1.92 19.15-1.51l.07-2.64Z" style="fill:#f5e944"/><path d="M267.33 238.91c.51 3.23 3.98 23.74 3.56 24.93-1.11 3.17-9.62 1.93-12.57 2.02-4.82.14-9.67-.05-14.49 0h-.52c-3.15.03-6.32.04-9.47 0-4.71-.06-9.46.2-14.16 0-1.03-.04-2.09.08-3.12 0-.75-9.02-.16-17.73.53-26.71h48.35l1.88-.24Z" style="fill:#cb8dbb"/><path d="m258.32 265.85.26 1.54c-.05 6.96 12.49 28.36-1.2 28.99-8.91.41-8.59-17.66-13.57-28.95l.02-1.59h-.52.52c4.82-.05 9.67.14 14.49 0Zm-24.48 0-.37 1.54c-1.29 4.68-4.21 25.84-5.01 27.11-1.62 2.59-10.53 3.45-12.4-3.45-.75-2.78 2.98-18.75 3.25-23.67l.38-1.53c4.7.2 9.45-.06 14.16 0ZM273.51 157l.78-.1c.05.73.08 1.47.08 2.21 0 12.64-7.01 24.29-18.17 30.22l.17.93-.66-.68a34.1 34.1 0 0 1-12.12 3.57c-5.71.58-11.48-.29-16.77-2.52-.17-.07-.34-.14-.51-.22a34.22 34.22 0 0 1-17.07-16.6c4.25.99.83-7.05 1.27-13.69 16.25-2.67 21.11-14.41 22.47-14.57 11.3 9.09 26.18 13.04 40.52 11.44Z" style="fill:#f5d9b4"/><path d="M253.85 113.16c1.95 2.03 4.42 6.23 4.87 9.01.61 3.75-3.51 2.17-3.01 6.47a34.23 34.23 0 0 1 18.54 27.71l-.74.65c-14.34 1.59-29.22-2.36-40.52-11.44-1.36.16-6.22 11.9-22.47 14.57-1.16.19-2.35.32-3.53.4l-1.03-.03c-.13-3.14.18-6.26.91-9.32.04-.18.09-.36.13-.54 6.78 2.44 4.26-8.39 21.92-19.34 4.9-3.04 9.4-2.06 7.51-6.2-4.06.44-7.95 1.59-11.6 3.42.5-2.49-2.92-3.71-3.01-5.33-.06-1.05 1.53-4.79 2.21-6 .09-.16.11-.35.2-.5 3.59 1.74 8.72-3.38 13.76-4.03 7.09-.92 12.03 2.16 15.37 0 .17.17.34.33.5.5Z" style="fill:#526b84"/><path class="cls-11" d="M226.82 190.64c5.28 2.23 11.06 3.1 16.77 2.52l-.07 2.64c-6.3-.41-13.05 1.13-19.15 1.51-5.04.32-5.42-3.46-6.05 2.49.57.38 1.22.64 1.77 1.04 1.82 1.3 3.67 1.76 3.02 4.79-.63 1.06-1.77.54-2.77.25-1.55-.44-24.96-13.61-28.22-15.62-7.26-4.47-15.53-11.49-20.61-13.1 2.9-9.55 6.43-1.62 18.85 6.35 6.93 4.45 14.28 8.18 21.32 12.4.96-.87 2.38-.85 3.44-1.17 3.34-.99 6.65-2.12 9.99-3.12l1.21-1.21c.17.07.34.15.51.22Z"/><path d="M206.86 151.18c.04-.18.09-.36.13-.54a34.22 34.22 0 0 1 17.83-22.12c3.65-1.83 7.54-2.98 11.6-3.42 1.89 4.14-2.61 3.16-7.51 6.2-17.65 10.95-15.14 21.77-21.92 19.34-.05.18-.09.36-.13.54" style="fill:#dcebf8"/><path class="cls-15" d="M253.85 113.16c-.16-.17-.33-.34-.5-.5-3.34 2.16-8.28-.92-15.37 0-5.04.66-10.17 5.77-13.76 4.03-.09.15-.11.35-.2.5.09-.16.11-.35.2-.5 6.3-10.41 20.32-12.7 29.13-4.03.17.17.34.33.5.5"/><path class="cls-11" d="M210.51 160.13c-.44 6.65 2.98 14.68-1.27 13.69-1.99-4.19-3.1-8.69-3.29-13.32l1.03.03c1.17-.08 2.37-.21 3.53-.4"/><path d="m153.55 213.21.53-.03c34.49-1.67 37.33 50.57 2.85 52.61s-37.82-50.17-3.38-52.58" style="fill:#f5e944;stroke:#312d4b;stroke-linecap:round;stroke-linejoin:round;stroke-width:3.53px"/><path class="cls-11" d="M152.31 216.47c1.45-.19 10.84-.33 10.83 1.26-17.48 4.96-18.9 9.71-29.48 22.93-2.17-11.3 7.66-22.72 18.65-24.19"/><path d="M152.48 232.4c.2-.08.4-.15.61-.22 8.81-2.76 13.73 10.51 4.92 14.01-9.12 3.62-14.45-10.25-5.53-13.79" style="stroke-linecap:round;stroke-linejoin:round;stroke-width:3.53px;fill:#fdfeff;stroke:#332f4f"/><path d="M221.81 123.2c-.06-1.05 1.53-4.79 2.21-6 .09-.16.11-.35.2-.5 6.3-10.41 20.32-12.7 29.13-4.03.17.17.34.33.5.5 1.95 2.03 4.42 6.23 4.87 9.01" style="stroke-linecap:round;stroke-linejoin:round;stroke-width:3.53px;fill:none;stroke:#2f2b46"/><path class="cls-6" d="M225.11 191.63c-3.34 1-6.64 2.14-9.99 3.12"/><path d="M261.43 195.53c22.24-3.12 48.06 4.25 68.52-6.77 49.43-26.63 36.7-98.46-23.58-103.41-10.85-46.38-50.99-65.22-93.84-46.25C168.14-25.65 73.5.61 65.82 78.28c-.8 1.11-2.6.32-5.48.61-8.81.9-14.02 1.04-22.68 5.14-49.39 23.39-46.28 92.31 6.55 108.55.17.05.33.15.5.2 4.31 1.28 8.66 1.9 13.1 2.42l117.4-.4c3.44.05 6.82.78 10.18 1.52.56.12 1.11.27 1.66.41 1.02.25 2.02.55 2.97.94" style="stroke-linecap:round;stroke-linejoin:round;stroke:#393453;fill:none;stroke-width:5.04px"/><path class="cls-6" d="M206.99 160.53c1.17-.08 2.37-.21 3.53-.4 16.25-2.67 21.11-14.41 22.47-14.57 11.3 9.09 26.18 13.04 40.52 11.44"/><path d="M88.01 70.55c6.27-23.28 21.11-40.13 44.73-46.5 1.83-.47 3.94-1.15 5.77-1.29 3.08.11 3.81 3.2 2.41 4.34-1.53.81-4.87 1.22-6.83 1.81-21.75 5.78-35.5 21.48-41.22 42.99-.95 3.17-5.68 1.89-4.86-1.35" style="fill:#423c5b"/><path class="cls-6" d="M274.37 159.12c0-.74-.03-1.47-.08-2.21-.01-.18-.03-.37-.04-.55a34.23 34.23 0 0 0-18.54-27.71 34.3 34.3 0 0 0-19.3-3.55c-4.06.44-7.95 1.59-11.6 3.42a34.22 34.22 0 0 0-17.83 22.12c-.05.18-.09.36-.13.54a34.17 34.17 0 0 0 2.38 22.64c3.52 7.4 9.58 13.29 17.07 16.6.17.07.34.15.51.22 5.28 2.23 11.06 3.1 16.77 2.52 4.25-.43 8.32-1.63 12.12-3.57.16-.08.33-.17.49-.26 11.15-5.93 18.17-17.58 18.17-30.22Zm-55.06 108.26c-.26 4.92-4 20.88-3.25 23.67 1.87 6.91 10.78 6.05 12.4 3.45.8-1.28 3.72-22.43 5.01-27.11m10.34.05c4.98 11.29 4.67 29.36 13.57 28.95 13.69-.63 1.15-22.03 1.2-28.99m-2.21-77.14c1.65 1.79 2.17 3.32 2.89 5.54.97 3.01 6.94 36.02 8.06 43.1.51 3.23 3.98 23.74 3.56 24.93-1.11 3.17-9.62 1.93-12.57 2.02-4.82.14-9.67-.05-14.49 0h-.52c-3.15.03-6.32.04-9.47 0-4.71-.06-9.46.2-14.16 0-1.03-.04-2.09.08-3.12 0-3.3-.25-5.83 1.13-7.06-2.52-.82-2.45 5.48-44.48 5.66-51.39m-1.11 27.21h51.4"/><path d="M218.91 202.48c-3.51-2.13-9.32-5.45-13-7.59-8.86-5-18.16-9.9-25.95-16.61-1.61-1.21-3.29-2.95-5.13-3.47-.04 0 .01 0 0-.01 0 .02-.07.04-.16.15-3.9 6.14-.11 10.93 5.3 14.5a116 116 0 0 0 9.71 5.76c9.98 5.4 20.32 10.16 30.73 14.88.97.45 2.11.97 3.03 1.39.22 3.69-2.55 2.96-4.7 2.28-10.43-4.73-20.92-9.56-31.07-15.06-3.45-1.84-6.62-3.71-9.97-5.93-3.31-2.29-6.95-5.34-8.18-9.53-1.2-3.6.02-9.91 3.45-12.02 3.78-1.66 6.86 2 9.54 3.93 1.97 1.61 3.91 3.16 5.93 4.61 6.16 4.36 12.86 7.84 19.47 11.62 3.92 2.31 7.76 4.39 11.6 6.79.36.24.99.5 1.76 1.03 1.26.67 4.92 1.9 3.25 3.74-1.8 1.56-3.79.44-5.6-.47Z" style="fill:#393453"/></g></g></svg>