<svg id="_图层_2" data-name="图层_2" xmlns="http://www.w3.org/2000/svg" viewBox="0 0 512 512"><defs><linearGradient id="_未命名的渐变_23" data-name="未命名的渐变 23" x1="186.18" y1="121.48" x2="169.23" y2="127.53" gradientUnits="userSpaceOnUse"><stop offset="0" stop-color="#eff1f0"/><stop offset="1" stop-color="#d8d2cb"/></linearGradient><style>.cls-1{fill:#951e23}.cls-2{fill:#81baae}.cls-3{fill:#1a6d89}.cls-4{fill:#c92d34}.cls-6{fill:#d5cfa7}.cls-11{fill:#144b60}.cls-12{fill:#d65f18}.cls-13{fill:#ece2d1}.cls-17{fill:#c7dcd9}.cls-19{fill:#012b40}.cls-20{fill:#2e96a5}.cls-21{fill:#e6a452}.cls-23{fill:#460c19}.cls-26{fill:#ce1f41}.cls-28{fill:#901d31}.cls-33{fill:#982127}.cls-35{fill:#d95244}.cls-36{fill:#290f1d}.cls-40{fill:#242b3a}.cls-42{fill:#761a23}.cls-43{fill:#6a1634}.cls-44{fill:#001426}.cls-46{fill:#5a6c82}.cls-51{fill:#e8b152}.cls-53{fill:#afafa6}.cls-56{fill:#e38b28}.cls-57{fill:#888a8b}.cls-59{fill:#e6824a}.cls-60{fill:#092b49}.cls-61{fill:#bd1a21}.cls-62{fill:#e5e4df}.cls-64{fill:#ecdaa7}.cls-65{fill:#201720}.cls-71{fill:#358496}.cls-73{fill:#ab5422}.cls-75{fill:#164361}.cls-76{fill:#5fb4b8}.cls-79{fill:#08070c}.cls-84{fill:#fcfcfc}.cls-85{fill:#989696}.cls-90{fill:#8f98a1}.cls-91{fill:#e7c374}.cls-94{fill:#8d1d46}</style></defs><g id="Layer_1"><g id="_生成式对象" data-name="生成式对象"><path class="cls-84" d="M0 0h512v512H0z"/><path class="cls-57" d="m290.75 456.5-1 1.5c-6.55.86-5.45.19 1-1.5m-31.5 4c1 .03 2-.04 3 0 5.65.22.59 1.17-3 0"/><path class="cls-35" d="M71.25 183.5c13.55-1.1 20.08 17.76 8 24.5-19.99 11.15-29.29-22.77-8-24.5"/><path class="cls-44" d="M333.75 396c5.75 7.53 16.78 15.25 10.75 26.25-3.41 6.23 2.06-12.64-8.5-16.5-1.29 11.82 4.76 33.84-10.25 31.75-11.06-1.54-5.48-19.74 6.5-13l.75-.75z"/><path class="cls-62" d="M214.25 429c12.2-1.76 16.08 17.04 4 19-14.64 2.38-16.6-17.18-4-19"/><path class="cls-44" d="M328.25 70.5c.47-.02 1.03-.14 1.25.25-.43 4.13.77 20.9-.5 23-2.67 4.4-9.12-2.88-1.5-6.5-.44-11.88 2.5-12.75-6.5-9.5 4.15 41.59-25.55 9.32-2 12v-15.5z"/><path class="cls-1" d="M358.75 216c2.99-1.37 8.49 26.87 8.75 30.25 3.04 39.34-14.71 76.67-46.25 99.75l-.75-.75c40.54-30.36 56.38-81.36 38.25-129.25"/><path class="cls-91" d="M302.5 156.5c-.57-1.61-.08-1.5 0-2 15.09 2.42 51.34 39.65 50 44.75-.66 2.5-10.95-12.76-12.5-14.5-6.89-7.73-28.21-25.26-37.5-28.25"/><path class="cls-51" d="M302.5 154.5c-.08.5-.57.39 0 2-3.88-1.25-11.62-.66-13-6.25-2.77-11.2 15.17-9.07 13 4.25"/><path class="cls-91" d="M238.75 145c2.69-.27 7.23.51 2.5 2.5-.28.12-.21-1.09-.5-1-.36.11-1.18 1.43-1.5 1.5-1.53.33-7.51.48-11.5 1.5-11.34 2.91-28.54 10.66-38 17.5-1.23.89-2.86 3.91-3.5 4-3.14.45-1.67-3.84 2.25-4.25.14-.81-.77-.82-.25-1.25 11.74-9.61 34.94-17.5 50-19.5.4-.05.11-.96.5-1"/><path class="cls-21" d="M284.25 360.5c6-.55 8.62 8.41 3.5 11.5-9.65 5.82-13.32-10.61-3.5-11.5"/><path class="cls-91" d="M163.25 192.5c2.43 0-5.61 11.32-8.25 17.25-11.06 24.79-8.66 40.24-10.75 40.25-2.03-18.35 8.33-42.57 19-57.5"/><path class="cls-61" d="M334.25 355c10.78-2.08 8.16 15.09-1.5 11-4.9-2.08-3.42-10.05 1.5-11"/><path d="M187.75 343.5c1-.26 9.96 6.41 12 7.5 15.77 8.48 31.91 12.93 49.75 14.75-15.37 2.36-41.73-7.54-54.75-15.75-1.26-.8-9.37-5.87-7-6.5" style="fill:#7b181d"/><path class="cls-61" d="M144.25 185c7.46.6 4.64 6.86 2.5 7.5-.87.26-17.72.49-18.25-.25-.2-.28-.05-6.54.25-6.75.63-.45 14.73-.56 15.5-.5"/><path class="cls-21" d="M137.75 200.5c9.19-1.44 7.76 9.85 3 11-7.9 1.91-10-9.9-3-11"/><path class="cls-3" d="M435.25 314.5c7.21-.84 8.23 9.84 2 11-8.62 1.61-8.35-10.26-2-11"/><path class="cls-44" d="M254.75 143.5c7.93-1.4 8.03 9.59 2 10.5-7.16 1.08-8.26-9.4-2-10.5"/><path class="cls-51" d="M318.75 364.5c6.74.38 5.65 11.88-1.5 11-7.13-.88-4.8-11.36 1.5-11"/><path class="cls-4" d="M253.75 357.5c7.31-1.16 8.52 10.15 2 11-6.48.84-7.61-10.11-2-11"/><path class="cls-62" d="M376.75 205c8.53-2 7.37 9.33 2 10.5-7.04 1.53-7.34-9.25-2-10.5"/><path class="cls-3" d="M128.25 114.5c6.24-.13 7.75 9.71 1.5 10.5-7.33.92-8.7-10.34-1.5-10.5"/><path d="M407.25 363.5c6.61-.82 8.23 9.57 2 10.5-7.49 1.11-7.83-9.78-2-10.5" style="fill:#45a4aa"/><path d="M456.75 302.5c.98-.12.74.5.75 1.25.06 5.4-11.21 31.65-14.5 38-6.97 13.48-21.25 35.8-32.25 46.25 20.3-25.25 38.7-53.42 46-85.5" style="fill:#435f76"/><path class="cls-62" d="M236.25 376c7.25-1.5 8.24 8.79 3 10-7.96 1.84-8.35-8.9-3-10"/><path class="cls-3" d="M293.75 127c8.11-1.68 7.83 9.26 2 10-6.69.84-7.59-8.84-2-10"/><path class="cls-2" d="M361.5 192.5c.57-2.07 4.55-11.53 5-12 6.53-6.7 19.8 8.41 8.75 15-7.88 4.7-12.25-1.85-13.75-3"/><path class="cls-62" d="M366.5 180.5c-.45.47-4.43 9.93-5 12-.26-.2-.83.86-1.25.5-8.73-7.59.9-16.05 6.25-12.5"/><path d="M365.75 405.5c9.25-2.2 8.42 12.24 0 9.5-4.57-1.48-4.05-8.54 0-9.5" style="fill:#0b5a7c"/><path class="cls-62" d="M187.25 363.5c5.5-1.52 9.67 7.42 4 9.5-7.22 2.64-7.96-8.41-4-9.5"/><path class="cls-13" d="M102.75 365.5c6.49-1.33 8.25 8.31 2.5 9.5-6.3 1.3-8.15-8.34-2.5-9.5"/><path class="cls-51" d="M80.75 297.5c5.26-.21 5.92 7.34 1.5 9-7.13 2.68-9.52-8.68-1.5-9"/><path class="cls-62" d="M165.25 157.5c8.47-1.88 6.72 11-.5 9.5-4.2-.87-3.45-8.62.5-9.5"/><path class="cls-76" d="M217.75 391c6.7-1.38 7.68 8.8 2 9.5-6.21.77-6.98-8.48-2-9.5"/><path class="cls-35" d="M302.25 63c7.08-1.59 7.82 7.78 3 9-6.56 1.67-8.14-7.84-3-9"/><path class="cls-44" d="M208.75 133c.59-.48 8.23 7.96 7.25 12.75-1.31 6.45-1.95-1.84-4.5-7-.71-1.35-.34 17.71-3 11-.43-1.07.13-13.99.25-16.75"/><path class="cls-1" d="M149.25 290.5c1.9-1.14 4.06 8.2 5.25 10.75 5.11 10.94 11.4 20.13 19.25 29.25-9.44-4.92-26.72-38.67-24.5-40"/><path class="cls-51" d="M135.25 294.5c6.87-.69 4.46 12.38-2.5 8.5-3.17-1.77-1.89-8.06 2.5-8.5"/><path class="cls-13" d="M102.75 193.5c7.51-1.16 5.41 11.14-1 8.5-3.85-1.58-3.25-7.84 1-8.5"/><path class="cls-46" d="M187.25 447.5c22.26 9.04 46.2 13.2 70.25 13.25-23.31 1.15-49.22-2.93-70.25-13.25"/><path class="cls-13" d="M180.5 352c-.52 1.79-4.51-3.96-4-5.75.14-.51 2.1.06 3.5-7.25.49.46 3.27 1.82 4.5 2.75z"/><path class="cls-51" d="M152.5 172c-6.68-5.32-7.78 8.49-1.5 3-3.6 6.42-4.52-.18-6.25 0-.74.08-4.1 4.88-4.5 5-3.48 1.06-5.67-3.57-2.5-4.5 1.81-.53 3.32 1.1 4 1 .88-.13 12.27-15.42 10.75-4.5"/><path d="M417.25 313.5c.58 5.94 2.49 25.39 1.75 29.25-1.55 8.02-13.22 7.4-14.5 2.5-1.69-6.49 7.75-10.54 12.5-6.5z" style="fill:#9b3c8c"/><path d="M421.25 323.5c5.52-2.43 4.97 17.13 1.5 19.5-1.58.56 1.84-7 .75-11.25-.12-.47-6.58-6.34-2.25-8.25" style="fill:#a74e99"/><path class="cls-42" d="M139.75 89.5c2.62-.23-9.74 8.35-10.5 9-9.85 8.44-18.82 17.91-27.75 27.25 2.41-6.28 35.35-36 38.25-36.25"/><path d="M128.75 256c8.29 4.69 3.75 14.02 2.25 11.75 1.07-1.16 1.26-3.06 1-4.5-1.69-9.4-1.81 8.32-3.25 8.25z" style="fill:#e69b22"/><path class="cls-46" d="m83.25 367 30.5 37-16.25-17.75z"/><path d="M444.75 179c6.16-.52-4.37 12.35-6.5 12-3.4-.56 4.92-7.75 5.25-8.25.12-.18-.31-3.62 1.25-3.75" style="fill:#dd5b59"/><path class="cls-51" d="m180.5 352 4-10.25c-1.23-.93-4.01-2.29-4.5-2.75-5.41-5.16-.61-5.47 6.5 2.25z"/><path class="cls-46" d="M259.25 50.5c13.58.29 27.09 2.05 40.25 5.25-.3.22-.59.72-.75.75-1.2.24-17.43-3.78-24-4.5-5.72-.63-13.66.22-15.5-1.5"/><path class="cls-76" d="M342.75 80c3.9-1.13 5.39 7.17 1 7.5-3.42.26-2.69-7.01-1-7.5"/><path class="cls-51" d="M144.25 380.5c4.27-.7 5.4 5.14 2 6-4.44 1.12-5.85-5.37-2-6"/><path class="cls-91" d="M311.25 111.5c4.53 5.73-4.76 7.74-5.75 4.25-1.17-4.1 4.86-1.94 5.75-4.25"/><path class="cls-13" d="M213.75 108c4.72-.61 5.36 7.67-1 5.5-2.95-1-1.49-5.18 1-5.5"/><path class="cls-51" d="M387.25 400c5.63-1.42 5.26 4.36 1.5 5-3.87.66-5.25-4.06-1.5-5"/><path class="cls-76" d="M214.25 417c4.69-1.55 5.49 4.01 2.5 5-4.69 1.55-5.49-4.01-2.5-5"/><path class="cls-51" d="M204.75 80c4.84-1.88 5.76 4.83 2.5 5.5-2.67.55-5.55-4.31-2.5-5.5"/><path class="cls-3" d="M69.75 172c4.05-.49 3.35 5.46 1 6-3.71.85-4.51-5.57-1-6"/><path class="cls-84" d="M152.5 172c-.24 1.7-.14 1.82-1.5 3-6.28 5.49-5.18-8.32 1.5-3"/><path class="cls-20" d="M332.25 377.5c3.34-.2 3.27 6.64-1 5.5-2.94-.78-1.42-5.36 1-5.5"/><path class="cls-21" d="M411.25 122 424 136.25l1.75 3.75c-1.87-3.53-14.47-15.67-14.75-16.75-.09-.34-.1-1.06.25-1.25"/><path class="cls-51" d="M114.75 404 131 417.75c.24 2.42-16.31-11.92-16.25-13.75"/><path class="cls-91" d="M136.75 398.5c3.48-.63 3.99 4.36 1.5 5-2.76.71-5-4.37-1.5-5"/><path class="cls-51" d="M393.75 130.5c3.01-.39 3.5 4.94 1.5 5.5-2.29.64-5.17-5.02-1.5-5.5"/><path class="cls-91" d="M143.75 251.5c3.24-.97 4.45 3.76 2 4.5-2.68.81-4.59-3.73-2-4.5"/><path class="cls-51" d="M400.75 112c5.5 3.24 15.39 15.17 4.75 5.25-2.27-2.12-5.54-4.86-4.75-5.25m61 122c1.69 2.12 1.95 8.47 1.5 11.5zm-71-131 9.25 7.75-.75.75z"/><path class="cls-91" d="M132.75 418.5c15.04 9.88 9.02 9.27 1.5 2.5-1.03-.93-2.24-1.94-1.5-2.5"/><path class="cls-13" d="M185.75 63.5c5.23-.62-2.49 3.72-4 4-5.41 1 3.53-3.94 4-4"/><path class="cls-85" d="M320.75 447.5c.13.01.45.52.75.75-23.31 9.82-2.79-.92-.75-.75"/><path class="cls-51" d="M463.25 252.5c.52 1.69.16 3.52.25 5.25.57 11.29-2.39-1.96-.25-5.25"/><path class="cls-44" d="M305 384c.91 12.26.35 34.46-.5 47-1.55.12-2.37-1.43-2.5-1.5v-34.25l-1-.75-23 3.5c-3.76-.3-3.32.48-3.5.5-3.66.5-16.21 0-23.5 3.25.03 12.38.19 24.85 0 37.25-3.07.45-2.68-.99-3.5-1.5 1.05-14.9-1.39-32.96 0-47.5z"/><path class="cls-35" d="M246.5 437c.33.14.71.32 1 .5.82.51.43 1.95 3.5 1.5-.04 2.85 2.35 8.47-3.25 11.5-9.34 5.05-19.21-5.22-11.75-12.5 3.58-1.65 6.64-1.7 10.5-1"/><path class="cls-75" d="m305 384-57.5 6c.07-.77-.27-3.13.25-3.5 19.15-1.39 38.22-4.78 57.25-6.25.06 1.24-.09 2.52 0 3.75"/><path class="cls-21" d="M302 429.5c.13.07.95 1.62 2.5 1.5-.05.69 2.23 9.51-5.75 11-6.31 1.18-13.92-5.1-10.25-11.5 4.77-2.95 8.39-3.83 13.5-1"/><path class="cls-76" d="M277.5 435.5c-.19 2.84 1.92 8.53-5.25 10.5-7.11 1.95-14.58-4.64-9.75-11.5 6.28-2.38 9.35-4.58 15 1"/><path class="cls-75" d="M278 398c-.1 12.51.35 25.01-.5 37.5-5.65-5.58-8.72-3.38-15-1 4.01-5.69 11.55-2.14 12-3.25V398.5c.18-.02-.26-.8 3.5-.5"/><path class="cls-17" d="M302 429c-.71 0-1.41-1.44-1.5-1.5 2.93-12.51-3.64-11.79-5-16.25-3.73-12.28 7.48-7.33 5.5-16.75l1 .75z"/><path d="M300.5 427.5c.09.06.79 1.5 1.5 1.5v.5c-5.11-2.83-8.73-1.95-13.5 1 2.02-3.53 8.63-5.06 12-3" style="fill:#983729"/><path class="cls-33" d="M246.5 437c-3.86-.7-6.92-.65-10.5 1 3.8-3.71 6.59-2.71 10.5-1"/><path class="cls-51" d="M369.25 85.5c13.91 9.16 1.52 3.97 0 1.5-.28-.45-.51-1.26 0-1.5"/><path class="cls-53" d="M56.75 310c.65 2.95 2.66 6.87 2.75 7.25 1.65 7.31-4.04-4.82-2.75-7.25"/><path class="cls-51" d="m361.25 80.5 6.75 5.25c-1.76-.51-7.26-3.42-6.75-5.25"/><path class="cls-64" d="M84.75 354.5c1.22-.83 3.71 1.95 1.5 3-2.48 1.18-3.37-1.73-1.5-3"/><path class="cls-91" d="m354.25 77 5.25 3.25c-.29.59-5.95-1.97-5.25-3.25"/><path class="cls-90" d="m251.25 50.5 6.25.75c-2.74.42-6.74.68-6.25-.75"/><path class="cls-85" d="M306.25 452.5c.49-.05 1 .03 1.5 0-9.63 5.6-6.71.48-1.5 0m-81.5-400c2.01.31-.41 1.21-2 1.5-10.06 1.84-2.01-2.12 2-1.5"/><path class="cls-53" d="M70.25 344c1.14.21 1.33 1.94 1.75 2.75 3.15 6.04-1.65.57-1.75-2.75"/><path class="cls-51" d="M460.25 221.5c.66-.21 1.24 2.6 1.25 2.75.22 4.83-1.92 2.32-1.25-2.75"/><path class="cls-90" d="M237.25 51c3.72-1.21 8.63 1.67-.5 1-.5-.14.24-.92.5-1"/><path class="cls-53" d="M60.25 321.5c.84.7.78 1.61 1.25 2.75 2.83 6.9-1.99.28-1.25-2.75"/><path class="cls-85" d="M281.75 458c.88.8-1.01 1.35-1.5 1.5-4.91 1.52-6.93-.01 1.5-1.5m-216-122.5c.93.06 1.32 1.79 1.75 2.75 2.88 6.54-1.56.4-1.75-2.75"/><path class="cls-51" d="M463.25 246.5c.99 4.71-.53 6.83-.75 2.75-.05-1.02-.26-2.06.75-2.75"/><path class="cls-57" d="M270.75 459.5c.67-.01 1.33 0 2 0v1l-5.25.25c-.16-.69 3.07-1.25 3.25-1.25"/><path class="cls-90" d="M246.25 50.5c4.76-.32 4.43 1.56-2.5 1-.26-.35 2.37-.99 2.5-1"/><path class="cls-51" d="M461.25 228.5c1.24.43 1.13 4.65.5 4.5-.65-.15-1.13-3.81-.5-4.5"/><path class="cls-57" d="M298.25 455c2.94-.08-1.14 2.25-4.75 1.25 1.37-.19 4.5-1.24 4.75-1.25"/><path d="M386.75 100c.44-.23 2.43.88 2.5 1 1.33 2.19-1.45 1.81-2.5-1" style="fill:#d2a23f"/><path class="cls-51" d="M455.75 204.5c.17.02 1.28 3.08 1.25 3.25-.47 2.59-2.96-3.42-1.25-3.25"/><path d="M232.25 51.5c4.1-.45 1.65 1.89-2.25.75 1.29-.09 2.13-.74 2.25-.75" style="fill:#abacad"/><path d="M214.25 54.5c3.84-.24-2.5 2.32-2.75 1.25.27-.5 2.6-1.24 2.75-1.25" style="fill:#7c8895"/><path class="cls-85" d="M53.75 300.5c.62-.15.66 1.5.75 1.75 1.5 4.32-2.07-1.43-.75-1.75"/><path class="cls-51" d="M456.75 209.5c.25-.08.88 1.17 1 1.5 1.66 4.49-2.47-1.03-1-1.5"/><path class="cls-53" d="M73.75 350.5c.88-.35 2.18 2.28 1.5 2.5-.21.07-2.06-2.27-1.5-2.5"/><path class="cls-57" d="M55.75 307c.2-.09 1.26 1.35.5 1.5-1.01.2-.98-1.27-.5-1.5"/><path class="cls-44" d="M198.5 92c-22.27 13.01-12.72 1.64-15.75-.5-.84-.59-17.75.45-20.5 0l-.25 8c-1.37.18-.93-.57-1-1.5-.16-2.28.48-4.93-.5-7 4.4-.97 35.76-.6 38 1"/><path class="cls-51" d="M181 105.5c.37-.64.66-1.35 1-2 5.26.99 16.07.51 16.75 1 .36.25.37 4.08.25 4.25-.51.72-16.94.61-17.75.25-1.21-.54-.87-2.63-.25-3.5"/><path class="cls-20" d="M160.5 91c.98 2.07.34 4.72.5 7l-13.5.5c1.43-1.64 10.7-6.99 13-7.5"/><path class="cls-11" d="M162 99.5c.05.79-.87.39-1 .5h-14.25c-.94-1.87.67-1.41.75-1.5L161 98c.07.93-.37 1.68 1 1.5"/><path d="M198.5 92c1.74.3 1.13 11.11.25 11.5-10 .44-26.64-1.86-16.75 0-.34.65-.63 1.36-1 2-.04.07-.89-.19-1 .25-.25.97-1.27 20.54.5 18.75 2.51-.02-.37-11.56 1.75-12.5l16.75.5c.55 2.08 1.13 41.35-.25 43-1.94.91-3.87-.03-5.75 0 2.61-.5-2.56-9.81-2-16.25-22.15-3.73-31.85-.07-2.5 1.5.07 16.63-3.48 6.93-5.5 14.25-5.11-.06-33.09.51-34.75 0-.24-.07-1.64-.99-1.75-1.25l.5-52.5 13.75-.25c.45-.14.17-.93.25-1 .13-.11 1.05.29 1-.5l.25-8c2.75.45 19.66-.59 20.5 0 3.03 2.14-6.52 13.51 15.75.5" style="fill:url(#_未命名的渐变_23)"/><path d="M193 155.5c-3.38.06-6.72-.46-10-.5 2.02-7.32 5.57 2.38 5.5-14.25-29.35-1.57-19.65-5.23 2.5-1.5-.56 6.44 4.61 15.75 2 16.25" style="fill:#c87f45"/><path class="cls-21" d="m199 112.5-16.75-.5c-2.12.94.76 12.48-1.75 12.5l.75-13.5h17c.96.67.66 1.17.75 1.5"/><path class="cls-33" d="M156.25 124.5c1.67-.19 10.58-.21 12 0 12.65 1.85-13.11 3.71-16.5 2.5-2.94-1.05 2.84-2.31 4.5-2.5"/><path d="M190 124.5v-6c3.77-1.43-2.02-5.91 2.25-5 1.35.29 3.44 16.72-.5 14.5-.17-.1-.14-1.21-1.75-3.5" style="fill:#d39247"/><path class="cls-36" d="M152.25 132.5c.98-.41 21.28-.31 21.25.75-4.8 2.13-27.28 1.8-21.25-.75"/><path class="cls-75" d="m151.75 111 21.25.75c-5.24.95-21.51 1.81-21.25-.75"/><path class="cls-79" d="m152.25 146 20.75.75c0 1.21-24.94 1.35-20.75-.75"/><path class="cls-19" d="M151.75 117c.98-.32 19.62-.52 20.5 0 4.39 2.6-14.37.59-21 1-.5-.14.24-.92.5-1"/><path class="cls-11" d="M165.25 105c13.74 0-1.45 3.26-13.75.75 4.5.08 9.3-.75 13.75-.75"/><path class="cls-79" d="M152.25 140.5c.85-.27 17.75-.26 17.75.75l-18.25.25c-.5-.14.24-.92.5-1"/><path class="cls-73" d="M190 118.5v6c-5.93-8.45-.92-5.65 0-6"/><path d="M178.75 140.5c2.39 1.14 6.34.07 7.5.5 5.39 1.98-11.21 1.6-7.5-.5" style="fill:#bd8c6a"/><path class="cls-35" d="m186.75 133 8.25.25c-1.3 1.18-8.46 1.3-8.25-.25"/><path class="cls-44" d="M396.5 326c.05.61-.41.45-.5.5-24.5 14.58-10.92 2.13-15.75 0-4.94.37-11.7-.51-16.25 0-5.99.67-2.42 1.16-3.25 7-3.41.12-6.85-.16-10.25 0v-.5c8.38-1.36 10.6 1.86 8-6 .1-.03 1.41-.79 1.75-1 7.17.29 31.68-1.71 36.25 0"/><path d="M358.5 327c2.6 7.86.38 4.64-8 6-.31.05-.71-.07-1 0 1.45-3.01 5.91-5.15 9-6" style="fill:#f2c749"/><path class="cls-84" d="M396 326.5c4.22 14.79-8.18 13.96-18.75 11-10.08 7.76-7.66-.94-13.75-2.25l.5-8.75c4.55-.51 11.31.37 16.25 0 4.83 2.13-8.75 14.58 15.75 0"/><path class="cls-62" d="M348 333.5c.04.98.76.08 2.5 0 3.4-.16 6.84.12 10.25 0 .83-5.84-2.74-6.33 3.25-7l-.5 8.75c6.09 1.31 3.67 10.01 13.75 2.25 10.57 2.96 22.97 3.79 18.75-11 .09-.05.55.11.5-.5.39.15 1.23-.27 1.5.25-.57 8.67.23 56.62-.5 59.5-.2.8-.85 1.96-1.75 2.25-2.39.78-43.25-.31-50.25-.75 0-17.66-.23-35.46 1-53 .68-1 1.35-.68 1.5-.75"/><path class="cls-73" d="M349.5 333c.29-.07.69.05 1 0v.5c-1.74.08-2.46.98-2.5 0 .76-.37.74-.32 1.5-.5"/><path class="cls-40" d="M385.25 355c1.21-.02 8.58.2 4.5 2-1.84.81-35.27-.08-40.25-.75 11.84-1.01 23.88-1.01 35.75-1.25"/><path class="cls-65" d="m349.25 379 41.25.75c0 2.06-38.33.27-41.25.25z"/><path class="cls-40" d="m349.25 361.5 42.25.75c-5.56.41-39.76.89-41.75.25-.26-.08-1-.86-.5-1"/><path class="cls-79" d="m349.75 373.5 40.75.75c0 2.04-37.58-.25-40.75.25zm7.5-6 33.25.75-40.25.25z"/><path class="cls-44" d="M349.75 349c28.36.5 27.75 2.31 0 1z"/><path class="cls-65" d="M349.25 343.5c24.28-.46 24.26 1.46 0 1z"/><path class="cls-35" d="M384.75 339.5c.97-.08 3.31-.15 4 0 9 1.91-12.87 2.95-8 .5 3.36.33 3.8-.48 4-.5"/><path class="cls-42" d="M381.75 344c13.17-.44 13.14 1.44 0 1z"/><path class="cls-65" d="M381.75 349c12.52-.44 12.5 1.44 0 1z"/><path class="cls-21" d="M101.25 134c34.59-3.06 38.03 47.58 8 51-35.6 4.05-38.73-48.28-8-51"/><path class="cls-62" d="M102.75 155.5c2.12 2.41 8.64 3.61 5.25 7.75-2.42 2.95-12.35 3.12-5.25-7.75"/><path class="cls-51" d="M95.5 157v-12c7.12-6.45 4.22 16.05 0 12"/><path class="cls-13" d="M95.5 145v12c.51 7.62-.35 17.47-2 12.75-.42-1.2-.83-22.19 2-24.75m7.25.5c17.68 10.41-1.73 12.85.5 3.5 10.38 4.98 1.57.67-.5-3.5"/><path class="cls-20" d="M125 316.5c-1.29-.19-7.25 3.66-7.5 4-12.41-4.92-24.15 2.08-21.5 16.5l-12 5c-.33-.75-.31-.9-.5-1.5l-1-13c.38-1.77.85-2.04 1.5-3.5 5.22-11.67 15.8-13.81 27.5-15 5.75.93 9.68 3.17 13.5 7.5"/><path class="cls-51" d="M117 340c1.87 1.89 6.37 4.02 9 5-10.97 15.31-34.18 14.54-42-3l12-5c.19 1.06 4.38 8.9 5.25 9 5.29-2.23 9.89-8.32 15.75-6"/><path class="cls-59" d="M129 326c1.17 8.34 2.26 11.66-3 19-2.63-.98-7.13-3.11-9-5-3.97-4.02-.39-3.39.5-11z"/><path class="cls-11" d="M125 316.5c2.1 2.38 3.55 4.95 5 7.75.2.8-1.08 1.18-1 1.75l-11.5 3c.17-1.42-2.23-5.44 0-8.5.25-.34 6.21-4.19 7.5-4"/><path class="cls-71" d="M111.5 309c-11.7 1.19-22.28 3.33-27.5 15 3.72-12.61 15.13-16.99 27.5-15m-28 31.5c-1.58-4.94-2.14-7.63-1-13z"/><path class="cls-62" d="M117.5 320.5c-2.23 3.06.17 7.08 0 8.5-.89 7.61-4.47 6.98-.5 11-5.86-2.32-10.46 3.77-15.75 6-.87-.1-5.06-7.94-5.25-9-2.65-14.42 9.09-21.42 21.5-16.5"/><path class="cls-56" d="M141.5 355c-1.82 2.29 1.55 3.36 2 5.5-4.88 3.41 9.04-.02 5-2 .06-.02-.19-.86.25-1 .54-.09 1.33.14 1.75 0 .06-.02-.29 1.27.75 1 5.54-1.46 8.26-6.02 8.75-3.75.76 3.5-8.78 5.84-9 7-.73 3.82 8.56-5.03 7.5 0-.43 2.06-6.94 2.98-7.25 3.25-.6.53.2 4.03-1 4-.95-.02-2.23-4.9-2-6-8.43 2.37-7.72 7.32-14 6.5-10.65-1.38-10.7-22.61 7.25-14.5"/><path class="cls-51" d="M150.5 357c-1.43-1.2-.02-2.61-1-3.75-.07-.08-1.89-.75-2-.75 1.53.6.95-2.69 1-7l2.5-.5c.12 2.57-.09 5.17 0 7.75 11.57-3.01 2.3-13.12 2.5-14 .12-.55 2.08-1.4 2.75-1.25 3.47.76 1.92 12.37 2.25 15.25zm-2-19.5v7.5c-1.93.7-12.26 6.39-13.5 4.75 5.54-4.33 4.89-12.92 13.5-12.25"/><path class="cls-21" d="M147.5 352.5c.11 0 1.93.67 2 .75.98 1.14-.43 2.55 1 3.75v.5c-.42.14-1.21-.09-1.75 0-.44.14-.19.98-.25 1-.85.36-4.78 1.85-5 2-.45-2.14-3.82-3.21-2-5.5.8-1 4.92-2.54 6-2.5"/><path class="cls-61" d="M145.25 368c4.22-.91-1.5 9.27-9.75 4.25 9.8-.44 9.02-4.09 9.75-4.25"/><path d="m151 345-2.5.5v-8c1.01.08 1.79-.32 2.5.75.07 2.24-.1 4.51 0 6.75" style="fill:#b86d1d"/><path class="cls-64" d="M143.5 360.5c.22-.15 4.15-1.64 5-2 4.04 1.98-9.88 5.41-5 2"/><path class="cls-76" d="M119.75 375.5c8.04-.64 15.16 7.18 10.25 14.75-5.05 7.79-20.72 3.59-18.5-8 .61-3.18 5.15-6.5 8.25-6.75"/><path class="cls-84" d="M120.25 379.5c1.63-.28 1.46 6.52 1.25 7.75-1.44 8.46-2.45-7.54-1.25-7.75"/><path class="cls-17" d="M127.75 384.5c1.11-.06.87 2.22.75 2.75-1.24 5.28-2.91-2.64-.75-2.75"/><path class="cls-4" d="M85 252c.18 6.98-.13 14.01 0 21H72c-.12-7.05.33-13.99.5-21 4.14.16 8.36-.21 12.5 0"/><path class="cls-56" d="m104 252.5.5.5c-1.41 2.4-.01 7.16 0 9 0 1.64.49 9.45-.75 10H91.5c.2-6.5.31-13 .5-19.5z"/><path class="cls-59" d="M91 283.5c2.13 2.74 18.23-1.39 12 3.5-5.98.06-12.02.11-18 0v-14c-.13-6.99.18-14.02 0-21 .96.05 5.14-.26 5.5.25z"/><path class="cls-51" d="M108.5 259.5c.18 7.9-.13 15.84 0 23.75.21.46.77.15 1 .25.17.07.64-.06 1 0 2.66.45 8.45-1.1 12.5-.5.9.01.34-1.47.5-3 4.15.95 1.14-6.12 3-6.5-.03 1.82.3 13.11-.25 13.5-7.75.05-15.51-.07-23.25 0 6.23-4.89-9.87-.76-12-3.5v-1c1.33 1.7 13.04 1.3 13.5.25l-.75-10.25H91.5v-.5h12.25c1.24-.55.76-8.36.75-10 4.63 2.2.65-2.75 4-2.5"/><path class="cls-4" d="M85 273v14c-1.76-.03-12.62.28-13-.25-.06-4.58.08-9.18 0-13.75z"/><path class="cls-76" d="M53.5 241c.03 3.32-.23 6.7.25 10 1.21.86 9.77-.15 11.75 0 .08 0-.63.71 1 1l-1 10c-.6-11.25 2.04-9.75-12-9.75.21 1.71-.28 8.6 0 9 .63.89 6.36-.53 8 .75-2.94.21-5.98-.62-7 .75-.6 2.91-.36 5.82-.5 8.75-.06 1.28.5.94.5 1-.03 2.5-1.39 6.68 0 9.5-3.77-4.93.46-19.09-2-20-.69-.26-3.14.18-4.5 0-.1-7.07-1.1-14.4-.5-21.5 2.07-.37 4.04.28 6 .5"/><path class="cls-56" d="M91 282.5c-.33-3.36.39-6.67.5-10h12.25l.75 10.25c-.46 1.05-12.17 1.45-13.5-.25"/><path class="cls-4" d="m85 251.5-13-.5c.42-12.52-1.67-10.85 13-9.25.07 3.25-.1 6.51 0 9.75"/><path class="cls-20" d="M65 230.5c.92 3.32.5 7.08.5 10.5v1c-3.96-.72-7.97-.55-12-1-.02-1.69-.49-9.95.75-10.5z"/><path class="cls-56" d="M104 240c.07 1.53-.51 1.67-.5 2h-11c.03-.69-1.54-6.61.25-11h11c1.13.46.01 3.91.25 9m-.5 2c.04 2.71 1.97 4.46.5 9.5H92c.1-3.18.38-6.37.5-9.5z"/><path class="cls-20" d="M52.5 262c-.9 3.24.99 22.19.5 23.25-.48 1.05-4.04 1.2-5 .75-.37-1.38.07-19.34 0-24 1.36.18 3.81-.26 4.5 0"/><path class="cls-3" d="M70.5 252.5c.41 11.4.62 22.83.5 34.25l-22.25.75c-.96-.67-.66-1.17-.75-1.5.96.45 4.52.3 5-.75.49-1.06-1.4-20.01-.5-23.25 2.46.91-1.77 15.07 2 20 2.62 3.43 6.77 2.77 11 2 .41 3.13 4.3 2.03 4.5 1.75.98-1.38-1.13-29.41-.5-33.75.56.02 1.04-.15 1 .5"/><path class="cls-6" d="M126.5 254.5c-.04 6.32.11 12.68 0 19-1.86.38 1.15 7.45-3 6.5.59-5.68-.03-12.3-.5-18 0-3.46.03-6.55-.5-10 0-.05.76-.3 0-1l.5-.5c4.66-.89.94 3.71 3.5 4"/><path class="cls-62" d="M65 230.5H54.25c-1.24.55-.77 8.81-.75 10.5-1.96-.22-3.93-.87-6-.5.11-1.34 1.31-9.74 1.75-10l16-1z"/><path class="cls-17" d="M70.5 252.5c.04-.65-.44-.48-1-.5-.96-.03-2.18.14-3 0-1.63-.29-.92-.99-1-1v-10c7.3-1.33 4.68 2.71 5 11.5"/><path class="cls-6" d="M108 241c.07 3.66-.04 7.34 0 11l-3.5 1-.5-.5c.04-.32-.07-.75 0-1 1.47-5.04-.46-6.79-.5-9.5 0-.33.57-.47.5-2 1.07.75 3 .64 4 1"/><path class="cls-51" d="M104 251.5c-.07.25.04.68 0 1H92c0-.33-.01-.67 0-1z"/><path d="M85 251.5v.5c-4.14-.21-8.36.16-12.5 0 0-.06-.54.29-.5-1z" style="fill:#df7e67"/><path class="cls-64" d="M108 252c.03 2.39.44 5.02.5 7.5-3.35-.25.63 4.7-4 2.5-.01-1.84-1.41-6.6 0-9z"/><path class="cls-76" d="M122.5 252c.53 3.45.5 6.54.5 10 0 7.02-.18 13.98 0 21-4.05-.6-9.84.95-12.5.5-.45-10.49.39-21.04.5-31.5zm.5-1.5-.5.5h-12c.03-2.25-.36-20 .75-20.5l11.75.75z"/><path d="M126.5 254.5c-2.56-.29 1.16-4.89-3.5-4v-19.25l-11.75-.75c-1.11.5-.72 18.25-.75 20.5-.02 1.3.5.94.5 1-.11 10.46-.95 21.01-.5 31.5-.36-.06-.83.07-1 0-.54-14.06.61-28.23 0-42.25-.27-.52-1.1-.11-1.5-.25-.14-6.97-2.07-11.53 1.5-12.75-3.4-18.61 15.53-1.83 14-14 .21-.55 2.17-1.49 2.75-1.25 1.91.8.28 37.05.25 41.5" style="fill:#d4d9c9"/><path class="cls-76" d="M111.25 219.5h11l.75 9.75-11.75.75z"/><path d="M109.5 283.5c-.23-.1-.79.21-1-.25-.13-7.91.18-15.85 0-23.75-.06-2.48-.47-5.11-.5-7.5-.04-3.66.07-7.34 0-11 .4.14 1.23-.27 1.5.25.61 14.02-.54 28.19 0 42.25" style="fill:#b1b085"/><path class="cls-76" d="M122.5 251c.76.7 0 .95 0 1H111c0-.06-.52.3-.5-1z"/><path d="M123.5 280c-.16 1.53.4 3.01-.5 3-.18-7.02 0-13.98 0-21 .47 5.7 1.09 12.32.5 18" style="fill:#c9d8bc"/><path class="cls-71" d="M69.5 252c-.63 4.34 1.48 32.37.5 33.75-.2.28-4.09 1.38-4.5-1.75-.07-.53 1.06-8.21.5-10.75l-11.5-.75c0-.06-.56.28-.5-1h11.75c.98-.7-.17-8.09-.25-9.5l1-10c.82.14 2.04-.03 3 0"/><path class="cls-75" d="M65.5 284c-4.23.77-8.38 1.43-11-2-1.39-2.82-.03-7 0-9.5l11.5.75c.56 2.54-.57 10.22-.5 10.75"/><path class="cls-20" d="M65.5 242v9c-1.98-.15-10.54.86-11.75 0-.48-3.3-.22-6.68-.25-10 4.03.45 8.04.28 12 1m0 20c-1.32.06-2.68-.09-4 0-1.64-1.28-7.37.14-8-.75-.28-.4.21-7.29 0-9 14.04 0 11.4-1.5 12 9.75"/><path class="cls-75" d="M61.5 262c1.32-.09 2.68.06 4 0 .08 1.41 1.23 8.8.25 9.5H54c.14-2.93-.1-5.84.5-8.75 1.02-1.37 4.06-.54 7-.75"/><path class="cls-44" d="M196.75 57c10.07 5.17 2.41 19.57-1.25 12.75z"/><path class="cls-84" d="M197.75 60c.56-.43 4.14 4.64 2.5 6-.98.81-3.91-1.92-2.5-6m-.5 6.5c1.52-.2 1.47 4.23 0 4-1.08-.17-1.05-3.86 0-4"/><path class="cls-35" d="M443.25 198.5c4.06-.2 5.57 8.07 1 8.5-5.94.56-7.26-8.2-1-8.5"/><path class="cls-84" d="M442.75 200.5c2.55-.13 2.08 4.47-.5 4-2.4-.43-.86-3.93.5-4"/><path class="cls-35" d="M444.25 187c1.91 0 5.86 12.09-1.5 8.5-5.1-2.49.87-8.5 1.5-8.5"/><path class="cls-84" d="M444.25 189c1.04-.01 2.12 5.3.5 6-3.02 1.31-2.04-5.98-.5-6"/><path class="cls-76" d="M253.75 59c29.62-2.93 53.31 28.63 35.25 54.75-21.94 31.74-73.72 11.58-66.5-27 2.56-13.68 17.59-26.4 31.25-27.75"/><path class="cls-44" d="M259.75 69c6.49 6.21 15.62 7.19 17.75 17.25 2.1 9.93-2.65 11.36-3.5 9-.43-1.2 5.89-10.74-11.75-19.75-.62.48-.44 14.98-.25 15.75.21.88 8.85 9.73.25 15.75-13.36 9.35-24.58-15.26-3.75-16.25z"/><path class="cls-84" d="M261.25 97.5c2.31-.83 2.11 5.63 0 6.5-4.11 1.69-.42-2.06-.25-2.75.21-.85-1.44-3.14.25-3.75"/><path d="M379.5 273.5c.03.66-.02 1.34 0 2 .22 5.96-.92 24.58 1.25 25.5h63.5c1.28-.57.73-11.47.75-13.5h4c-.04 2.45.55 17.42-.75 18l-72-.5c.42-18.21-1.76-39.32-.25-57 .87.01 2.66-.27 3 .75.36 1.07-.63 18.99-.5 22.5 0 .12 1 2.13 1 2.25" style="fill:#acbea8"/><path class="cls-2" d="M449 228.5c-.22 19.65.3 39.35 0 59h-4c.04-4.18-.48-8.4-.5-12.5-.08-15.41.06-30.83 0-46.25.46-1.17 3 .28 4.5-.25"/><path class="cls-44" d="M439 216c-1.96 6.57.97 7.82.5.5.99.06 2.02-.08 3 0-.22 1.24.61 4.9-.75 5.5-1.55.69-29.25-.52-34 0-1.31-9.17-.5 1.36-2.5 0l.75-5.5c.62-.06 1.04-.99 1.25-1 10.46-.54 21.3-.08 31.75.5"/><path class="cls-71" d="M439.5 216.5c.47 7.32-2.46 6.07-.5-.5.66.04.46.5.5.5"/><path class="cls-51" d="m406 216.5-.75 5.5c2 1.36 1.19-9.17 2.5 0 4.75-.52 32.45.69 34 0 1.36-.6.53-4.26.75-5.5.7.06 11.22-2.16 12 4.25.33 2.66-2.99 6.87-5.5 7.75-1.5.53-4.04-.92-4.5.25.06 15.42-.08 30.84 0 46.25l-65 .5c-.02-.66.03-1.34 0-2l11-1.25v-22.5c7.32-3.91-.65-11.16-4.25-15.25-1.9 1.97-6.83 5.06-7.75 6-2.91-19.41 4.84-13.12 6.75-14 1.1-15.37 12.57-8.28 15-10 .99-.7-.66-4.06.5-5 2.3 3.61-2.04 5.64 5.25 5"/><path class="cls-13" d="M397.25 238c5.02 1.05 38.85-.67 40.5.5.31.22.43 5.99.25 6.25-1.21 1.7-36.96.09-41.75.75-1.4-.62-.86-6.84 1-7.5m-1 14.5c5.08.91 39.33-1.19 41 0 .31.22.43 5.99.25 6.25-1.18 1.66-36.02.27-40.75.75z"/><path class="cls-64" d="M398.25 249c.59.04 1.83 1.16.5 1.5-1.94.49-2.92-1.67-.5-1.5"/><path class="cls-76" d="M379.5 273.5c0-.12-1-2.13-1-2.25-.13-3.51.86-21.43.5-22.5-.34-1.02-2.13-.74-3-.75.02-.21-.85-.31-.5-4.25 1.16-.92 1.99-2.22 3-3.25.92-.94 5.85-4.03 7.75-6 3.6 4.09 11.57 11.34 4.25 15.25v22.5z"/><path class="cls-84" d="M384.75 253.5c1.01 0 1.74 17.3-1 15-.58-.48.25-15 1-15"/><path d="M384.25 248.5c1.16-.05.58 2.6-.5 2-.7-.39.02-1.98.5-2" style="fill:#95c8c9"/><path class="cls-35" d="M444.5 275c.02 4.1.54 8.32.5 12.5-.02 2.03.53 12.93-.75 13.5h-63.5c-2.17-.92-1.03-19.54-1.25-25.5z"/><path class="cls-84" d="M395.25 282c4.56.81 35.01-1.06 36.5 0 .29.21.44 5.31.25 5.75-.75 1.68-35.25 1.81-36.75.75-.41-.29-.41-6.21 0-6.5"/><path class="cls-21" d="M173.25 382.5c24.54-2.19 40.36 24.84 26.25 43.75-8.54 11.43-25.79 13.87-37.75 6.75-22.76-13.55-14.63-48.16 11.5-50.5"/><path class="cls-44" d="M174.5 420c-1.19-6.98 5.91-11.03 11.5-7 1.99 6.83.59-5.42 1-14.75-.54-.76-10.46 1.4-12 1.75-1.19.27-3.67-.46-5 1-1.11.87.61 3.03-3 3.5.14-3.68-.58-7.44.75-8.5 2.9-.16 21.21-3.65 21.75-2.25-1.68 7.55 4.48 29.68-5.75 31.25-3.34.51-8.59-1.13-9.25-5"/><path d="m175 400 11 10.75c.11.7-.16 1.7 0 2.25-5.59-4.03-12.69.02-11.5 7l-4.5 1.5c1.19-5.32-.32-14.67 0-20.5 1.33-1.46 3.81-.73 5-1" style="fill:#ccbaa1"/><path class="cls-19" d="M170 421.5c-1.73 7.7-13.48 3.85-13 2.75 14.95 1.04 9.29-1.16 10-19.75 3.61-.47 1.89-2.63 3-3.5-.32 5.83 1.19 15.18 0 20.5"/><path class="cls-13" d="M186 413c-.16-.55.11-1.55 0-2.25L175 400c1.54-.35 11.46-2.51 12-1.75-.41 9.33.99 21.58-1 14.75"/><path class="cls-20" d="m413 144 1 4c-18.42 1.25-26.1 24.03-11.75 35 4.23 3.23 11.59 5.7 16.75 4.5.51 4.56 2.97.27 3.5 2.5-7.73 2.08-14.64 1.49-21.5-2.5-4.5-4.28-7.22-10.7-8-17-.36-2.93-.28-12.65 1-15.5 4.26-6.72 11.07-10.63 19-11"/><path class="cls-71" d="M422.5 190c-.53-2.23-2.99 2.06-3.5-2.5 5.56-1.29 12.91-8.83 15-14 3.33-8.23-1.51-11.29 3-13.5 4.66 12.84-1.01 26.37-14.5 30"/><path d="M437 160c-4.51 2.21.33 5.27-3 13.5 3.53-9.12-3.96-22.55-13-25l.5-3c7.77 2.37 12.74 6.9 15.5 14.5" style="fill:#405b84"/><path class="cls-75" d="M393 170.5c-2.84-.4-.46 1.78-1.5 5-2.4-7.74-1.86-13.61 2.5-20.5-1.28 2.85-1.36 12.57-1 15.5"/><path class="cls-75" d="M393 170.5c.78 6.3 3.5 12.72 8 17-5.21-3.04-7.7-6.2-9.5-12 1.04-3.22-1.34-5.4 1.5-5"/><path class="cls-3" d="m421.5 145.5-.5 3c-2.12-.58-4.81-.65-7-.5l-1-4c2.08-.1 6.33.84 8.5 1.5"/><path class="cls-51" d="M414 148c2.19-.15 4.88-.08 7 .5 9.04 2.45 16.53 15.88 13 25-2.09 5.17-9.44 12.71-15 14-5.16 1.2-12.52-1.27-16.75-4.5-14.35-10.97-6.67-33.75 11.75-35"/><path d="M422.5 165.5c.16 3.43.01 6.85.5 10.25-.75 3.8-15.27 3.77-16.5-1-.2-.77.03-3.58 0-5.25 2.68-1.72 7.08-.13 8-3.5 2.69.4 5.34-.57 8-.5" style="fill:#4f6b62"/><path class="cls-84" d="M422.5 165.5c-2.66-.07-5.31.9-8 .5-.58-.09-6.52-2.79-6.5-3.25.01-.31 3.85-3.71 4-4.75 12.89-3 10.41 5.53 10.5 7.5"/><path d="M412 158c-.15 1.04-3.99 4.44-4 4.75-.02.46 5.92 3.16 6.5 3.25-.92 3.37-5.32 1.78-8 3.5-.09-5.72-.56-10.09 5.5-11.5" style="fill:#44544e"/><path class="cls-51" d="M376 124c-12.61-.34-25.38-.09-38 0-3.82.03-7.68-.1-11.5 0h-.5c4.52-6.92 16.57-14.39 23.25-20.5 1.34-.16 19.5 13.55 22 15.5 1.98 1.54 5.18 3.98 4.75 5"/><path d="M379.5 125.5v34c.64-1.47-3.45-.55-7.5-.5-.09-2.82.12-5.68 0-8.5-.18-4.13-.26-8.39-.5-12.5h2.5c0 2.49-.07 18.94.5 19.75.29.41 4.21.41 4.5 0 .46-.65.28-15.25 0-16-.13-.35-2.55-2.18-4.5-4.75v-11.5h.5c1.49-.09 3.01.08 4.5 0" style="fill:#d6cacc"/><path class="cls-44" d="M349.75 100c2.07-.04 27.43 20.13 31.25 23.25-10.59-4.53-21.29-14.27-30.75-21.25-39.76 30.93-39.22 25.7-.5-2"/><path class="cls-28" d="M355.5 140c.23.27-.75 1.89 1.5 1.5h.5c-.01.17 0 .33 0 .5-.27 5.64-1.24 11.36 0 17-.77.11-1.15-.21-1 1-3.16.04-6.34.01-9.5 0v-1c1.24-.14 2.63.5 3.5-.75.06-3.41-.09-6.84 0-10.25 2.71-1.81-1.01-8.06 2.5-8.75-2.62-11.93 2.62-8.77 1 .5.14.5 1.4.13 1.5.25"/><path d="M325.5 141.5c0 2.29-1.88 16.13.75 15.5 1.6-.38.12-14.27 1.25-16.5 1.62.81.85 2.13 1 4 .48 6.17 1.09 13.84-3.5 14.5-1.39.05-2.99-.38-4 1-.05 0-.3.92-1-.25 3.2-3.12-.88-10.95 1-16.25.51-1.44 3.88-5.38 4.5-2" style="fill:#f1d9d2"/><path class="cls-23" d="M338 124c-1.45 1.2 6.32 2.4 7.5 2.5-1.62 5.18.45 4.24.5 4.5.06.3-.05.69 0 1-1.61-.26-.78 1.1-1 2.5-.69 4.34.1 9.85-1.5 10 .23-8.7 2.72-20.04-3-17.25.02 5.92-1.98 16.85 1 17-2.36 2.57.06 9.52-1.5 14 1.42 1.71 3.27.23 3.5.25 1.18.13 2.12.66 3.5.5v1c-3.49-.01-7.01.03-10.5 0l-6.5-1c1.89-.18 2.26.11 3-1.5.46 1.72.82 1.97 2.5 1 .09.12-.16.22.5.5 4.75 1.99 3.56-4.86 3.5-14-.02-2.35.59-12.6-1.5-13.5-.22-.1-3.78-.28-4 .5-.42-.15-1.37.11-2 0-.1-.02.28-.76-2-.5v-.5c3.36-.55 12.41 1.66 9.5-3.75-.62-1.15-9.44-1.01-11-.25-.33-1.42.45-1.43-2-2v-1c3.82-.1 7.68.03 11.5 0"/><path d="M376 124c.5.01 1-.01 1.5 0l-2.5 1.5h-.5c-1.58.09-1.74.48-2 .5-3.22.21-6.52-.16-9.75 0-.43 1.44-1.21 1.41-1.25 1.5-4.34-5.9-3.39 4.13-4 14h-.5v-14.75c-.42-.6-9.77-.1-11.5-.25-1.18-.1-8.95-1.3-7.5-2.5 12.62-.09 25.39-.34 38 0" style="fill:#11050a"/><path class="cls-84" d="M324.5 125c1.48 4.6 1.06 9.66 1 14.5-.02 1.3.5.94.5 1-.02 1.32-.5.94-.5 1-.62-3.38-3.99.56-4.5 2-4.06-5.92 2.99-7.45 3.5-9.25 1.02-3.63.77-10.21-4.5-9.25 1.49.05 3.01-.07 4.5 0"/><path class="cls-36" d="M372 159c4.05-.05 8.14-.97 7.5.5-7.63.89-15.34.41-23 .5-.15-1.21.23-.89 1-1 .8-.11 2.85-.5 3-.5 3.63-.05 7.7.55 11.5.5"/><path class="cls-65" d="M325 159c1.64-.06 3.37.15 5 0l6.5 1c-4.52-.03-12.25.38-15.5 0 1.01-1.38 2.61-.95 4-1"/><path d="M379.5 125.5c-1.49.08-3.01-.09-4.5 0l2.5-1.5c8.69.26 9.89 1.06 2 1.5" style="fill:#5c0d11"/><path class="cls-1" d="M326 124h.5v1c-.47-.11-1.3.04-2 0-1.49-.07-3.01.05-4.5 0-3.32-1.44 4.19-.95 6-1"/><path class="cls-28" d="M368 150.5c1.18.19.95-.49 1-.5 1.2-.26 1.95.38 3 .5.12 2.82-.09 5.68 0 8.5-3.8.05-7.87-.55-11.5-.5v-1c1.72.5.77-3.18 1-7.25.76-1.24 1.1 0 2.5-.25 1.05-.19.08-.84 1-1 .57 6.81 2.38 7.75 3 1.5"/><path d="M374 138c0-.47.5-.53.5-1 1.95 2.57 4.37 4.4 4.5 4.75.28.75.46 15.35 0 16-.29.41-4.21.41-4.5 0-.57-.81-.5-17.26-.5-19.75" style="fill:#c7a1c0"/><path class="cls-23" d="M372.5 126v12h-1c-.14-2.36.3-8.85-3-4.5-.76-2.53-2.86-2.6-3.5-1.25-.29.6-.06 11.47 0 13.25-2.75-2.07.74-11.71-2-14-.06-.05-.72.09-1.5-.5.15-1.14-.2-3.09 0-3.5.04-.09.82-.06 1.25-1.5 3.23-.16 6.53.21 9.75 0"/><path d="M371.5 138c.24 4.11.32 8.37.5 12.5-1.05-.12-1.8-.76-3-.5l-.5-13c0-1.13.15-3 0-3.5 3.3-4.35 2.86 2.14 3 4.5" style="fill:#293755"/><path class="cls-94" d="M374.5 125.5V137c0 .47-.5.53-.5 1h-1.5v-12c.26-.02.42-.41 2-.5"/><path class="cls-28" d="M357 141.5c-2.25.39-1.27-1.23-1.5-1.5l-.75-9H346c-.05-.26-2.12.68-.5-4.5 1.73.15 11.08-.35 11.5.25z"/><path class="cls-36" d="M355.5 140c-.1-.12-1.36.25-1.5-.25 1.62-9.27-3.62-12.43-1-.5-3.51.69.21 6.94-2.5 8.75.24-9.36 1.18-17-2.25-15.5-1.22.53-.69 13.3-.75 15.5-.01.5.01 1 0 1.5-2.2-1.5-1.37-5.41-1.5-8 1.11-3.09.46-6.39 0-9.5-.05-.31.06-.7 0-1h8.75z"/><path class="cls-26" d="M361.5 127.5c-.2.41.15 2.36 0 3.5-.61 4.55-.61 9.43-1.5 14-.33-1.09-1.41-2.48-2.5-3 0-.17-.01-.33 0-.5.61-9.87-.34-19.9 4-14"/><path class="cls-21" d="M360 145c.83 2.73.5 9.14.5 12.5v1c-.15 0-2.2.39-3 .5-1.24-5.64-.27-11.36 0-17 1.09.52 2.17 1.91 2.5 3"/><path class="cls-4" d="M350.5 148c-.09 3.41.06 6.84 0 10.25-.87 1.25-2.26.61-3.5.75-.33-3.2.41-6.34.5-9.5.01-.5-.01-1 0-1.5.48.38 2.88.08 3 0"/><path class="cls-43" d="M330 144c.82-.07 1.68.05 2.5 0 .03.49-.03 1.01 0 1.5.21 3.02.35 11.42.5 12-.74 1.61-1.11 1.32-3 1.5-1.63.15-3.36-.06-5 0 4.59-.66 3.98-8.33 3.5-14.5.61-.34.76-.43 1.5-.5"/><path d="M327.5 140.5c-1.13 2.23.35 16.12-1.25 16.5-2.63.63-.76-13.21-.75-15.5 0-.06.48.32.5-1 .55.06 1.3-.1 1.5 0" style="fill:#e5c2bb"/><path d="M329 139c.15-.03.34.01.5 0 .33-.02.67.01 1 0 0 .34 1.68 3.44-.5 5-.74.07-.89.16-1.5.5-.15-1.87.62-3.19-1-4-.2-.1-.95.06-1.5 0 0-.06-.52.3-.5-1 1.21-.04 2.32-.25 3.5-.5" style="fill:#033f4e"/><path class="cls-26" d="M343.5 144.5c-.12 4.65.09 9.34 0 14-.23-.02-2.08 1.46-3.5-.25 1.56-4.48-.86-11.43 1.5-14-2.98-.15-.98-11.08-1-17 5.72-2.79 3.23 8.55 3 17.25"/><path class="cls-43" d="M346 141.5c.13 2.59-.7 6.5 1.5 8-.09 3.16-.83 6.3-.5 9.5-1.38.16-2.32-.37-3.5-.5.09-4.66-.12-9.35 0-14 1.6-.15.81-5.66 1.5-10 1.66 1.81.87 4.48 1 7"/><path class="cls-35" d="M326.5 125c2.45.57 1.67.58 2 2 .23 1.02.39 2.91.5 4 .26 2.6-.25 5.41 0 8-1.18.25-2.29.46-3.5.5.06-4.84.48-9.9-1-14.5.7.04 1.53-.11 2 0"/><path class="cls-4" d="M330 131c-.32.05-.68-.02-1 0-.11-1.09-.27-2.98-.5-4 1.56-.76 10.38-.9 11 .25 2.91 5.41-6.14 3.2-9.5 3.75"/><path d="M334 132c.15.06.37-.06.5 0-1.41 1.47-2.38 12.56 1.5 11 .14 2.5.5 2.85.5 3 .07 2.15 0 4.35 0 6.5l-.5 4.5v2c-.66-.28-.41-.38-.5-.5-1.96-2.62 1.96-14.89-3-13-.03-.49.03-1.01 0-1.5-.2-3.82-1.05-7.53-.5-11.5v-.5c.63.11 1.58-.15 2 0" style="fill:#158d94"/><path class="cls-94" d="M339.5 145c.06 9.14 1.25 15.99-3.5 14v-2c.78.06.49-2.12.5-4.5 0-2.15.07-4.35 0-6.5.64-.17.86-.77 1.5-1 .32-.12 1.02.07 1.5 0"/><path d="M335.5 158.5c-1.68.97-2.04.72-2.5-1-.15-.58-.29-8.98-.5-12 4.96-1.89 1.04 10.38 3 13" style="fill:#63b09b"/><path d="M338 131.5V145c-.64.23-.86.83-1.5 1 0-.15-.36-.5-.5-3-.19-3.39.14-6.85 0-10.25-.68-1-1.35-.68-1.5-.75-.13-.06-.35.06-.5 0 .22-.78 3.78-.6 4-.5" style="fill:#08151b"/><path class="cls-3" d="M339.5 145c-.48.07-1.18-.12-1.5 0v-13.5c2.09.9 1.48 11.15 1.5 13.5"/><path d="M332 132v.5c-1.3 1.16-1.45 4.52-1.5 6.5-.33.01-.67-.02-1 0l.5-7.5c2.28-.26 1.9.48 2 .5" style="fill:#62546a"/><path d="M346 132c.46 3.11 1.11 6.41 0 9.5-.13-2.52.66-5.19-1-7 .22-1.4-.61-2.76 1-2.5" style="fill:#a24755"/><path class="cls-79" d="M330 131v.5l-.5 7.5c-.16.01-.35-.03-.5 0-.25-2.59.26-5.4 0-8 .32-.02.68.05 1 0"/><path class="cls-51" d="M368.5 133.5c.15.5 0 2.37 0 3.5.02 4.12-.09 9.4-.5 13.5-.62 6.25-2.43 5.31-3-1.5-.1-1.14.04-2.35 0-3.5-.06-1.78-.29-12.65 0-13.25.64-1.35 2.74-1.28 3.5 1.25"/><path d="M363 131.5c-.05 6.21.04 12.54 1 18.5-1.4.25-1.74-.99-2.5.25-.23 4.07.72 7.75-1 7.25 0-3.36.33-9.77-.5-12.5.89-4.57.89-9.45 1.5-14 .78.59 1.44.45 1.5.5" style="fill:#501232"/><path d="M365 145.5c.04 1.15-.1 2.36 0 3.5-.92.16.05.81-1 1-.96-5.96-1.05-12.29-1-18.5 2.74 2.29-.75 11.93 2 14" style="fill:#6f3965"/><path d="M369 150c-.05.01.18.69-1 .5.41-4.1.52-9.38.5-13.5z" style="fill:#151f41"/><path d="M350.5 148c-.12.08-2.52.38-3 0 .06-2.2-.47-14.97.75-15.5 3.43-1.5 2.49 6.14 2.25 15.5" style="fill:#c6c97b"/><path class="cls-44" d="M332.5 144c-.82.05-1.68-.07-2.5 0 2.18-1.56.49-4.66.5-5 .05-1.98.2-5.34 1.5-6.5-.55 3.97.3 7.68.5 11.5"/><path d="M336 143c-3.88 1.56-2.91-9.53-1.5-11 .15.07.82-.25 1.5.75.14 3.4-.19 6.86 0 10.25" style="fill:#74c8d2"/><path d="m336 157 .5-4.5c0 2.38.28 4.56-.5 4.5" style="fill:#84607b"/><path class="cls-76" d="M164 255c3 53.76 37.47 88.81 91.5 91.5v8c-28.62.7-55.62-11.27-74.5-32.75-16.63-18.92-24.61-41.04-24.5-66.25z"/><path class="cls-51" d="M254.5 157v8c-50.26 2.02-88.75 39.25-90 90h-.5l-7.5.5c.24-54.51 43.42-98.39 98-98.5"/><path class="cls-76" d="m173 255 2 1c-2.05 10.94 5.62 33.06 11.5 42.75 14.26 23.53 40.85 37.32 68.25 37.25 1.26 1.07.69 5.19.75 9-50.56.68-90.11-38.99-90-89.5 2.16-.88 5.09-.48 7.5-.5"/><path class="cls-76" d="M184 255c-.02.44.43.5.5 1 .55 3.92.35 8.37 1 12.25 5.6 33.63 35.05 58.23 69.25 57.75l.75 8.75c-45.06 1.54-80.15-34.59-80-79.25.07-.05.55.11.5-.5z"/><path class="cls-76" d="M194 255.5c1.24 28.8 18.89 53.49 47.75 59.5 6.92 1.44 14.83-.13 13.75 3-.04 2.16.03 4.34 0 6.5-.05.02.17.94-.25 1-1.36.2-7.1-.27-9-.5-35.98-4.32-60.68-33.62-60.75-69.5 2.72-.29 5.74.21 8.5 0"/><path class="cls-51" d="M254.5 195.5v1c.05 2.37.41 4.71.5 7-2.18 1.94-7.79 1.62-11.25 2.5-22.91 5.81-38.64 24.64-39.25 48.5v.5h-9c.47-33.88 25.78-57.81 59-59.5"/><path class="cls-76" d="M214.5 255.5c-.15 22.21 19.42 41.39 41.5 41.5v.5c-.89 1.89-.5 5.52-.5 8-29.19-.32-49.64-20.25-50-49.5 3.06-.55 5.91-.63 9-.5"/><path class="cls-51" d="M255 205.5c.11 2.82-.08 5.68 0 8.5-21.43.44-39.96 19.76-40.5 41-2.89-.22-6.18.3-9 0-.21-27.82 22.23-48.77 49.5-49.5"/><path class="cls-3" d="M165.5 255v.5c-.11 50.51 39.44 90.18 90 89.5v1.5c-54.03-2.69-88.5-37.74-91.5-91.5z"/><path class="cls-12" d="M254.5 165v1c-49.4 1.37-88.43 39.08-89 89h-1c1.25-50.75 39.74-87.98 90-90m.5 39c.01.33-.01.67 0 1v.5c-27.27.73-49.71 21.68-49.5 49.5-.5-.05-.56-.53-1-.5.61-23.86 16.34-42.69 39.25-48.5 3.46-.88 9.07-.56 11.25-2.5z"/><path d="M175 255h1c.05.61-.43.45-.5.5-.14.09-.38-.16-.5.5l-2-1z" style="fill:#604838"/><path class="cls-75" d="M255.5 354.5V345c-.06-3.81.51-7.93-.75-9-27.4.07-53.99-13.72-68.25-37.25-5.88-9.69-13.55-31.81-11.5-42.75.12-.66.36-.41.5-.5-.15 44.66 34.94 80.79 80 79.25l-.75-8.75c-34.2.48-63.65-24.12-69.25-57.75-.65-3.88-.45-8.33-1-12.25.44.03.5-.45 1-.5.07 35.88 24.77 65.18 60.75 69.5 1.9.23 7.64.7 9 .5.42-.06.2-.98.25-1 .62-.24.4 1.44 1 .75l-.5-27.75v-.5c26.55.13 46.05-26.94 39.5-52.25-4.31-16.66-23.22-31.11-40.5-30.75-.08-2.82.11-5.68 0-8.5v-.5c11.91-1.22 23.08 6.39 23.5 5.25-6.2-4.78-15.79-6.1-23.5-6.25v-.5c-.09-2.29-.45-4.63-.5-7l1-1.5c8.84.41 17.18 2.48 25.5 5.25-7.78-4.52-17.13-5.92-26-5.75-.18-1.11.53-.58.5-1.5-.04-1.29-.14-5.44 0-5.75.75-1.7 5.32.1 6.5-1.25 9.42.88 18.63 3.03 26.75 8-6.11-6.77-24.04-9.4-33.75-9 0-2.98.11-6.02 0-9 11.56.47 22.57 2.65 33.5 6.25-10.18-5.3-22.12-6.65-33.5-6.75-.06-1.54.43-8.99-.5-9.5v-9c77.18-.16 126.51 83.18 86 150.25-18.52 30.67-49.57 46.39-85 47.25"/><path class="cls-17" d="M346.75 254.5c1.03 22.46-9.93 46.12-25.25 63.25-8.15 5.82 2.93-3.86 8.5-12 10.32-15.09 15.51-33.04 16.75-51.25"/><path class="cls-17" d="M336.25 254.5c1.06 21.4-8.86 44.66-25.5 58.5 16.56-17.07 24.21-34.54 25.5-58.5m-10-.5c1.31 18.87-8.08 39.06-21.5 52l-.75-.75c14.55-13.18 21.14-31.98 22.25-51.25m-10.5.5c1.41 15.76-6.03 33.88-18.5 44 12.29-13.31 17.58-25.72 18.5-44m-10 0c2.47 8.8-4.4 24.24-9.75 31.25-10.58 10.88-1.67 1.7 1.5-3.5 5.07-8.31 8.05-17.98 8.25-27.75m-50-89c12.67-.11 25.32 2.39 36.75 7.75.55 1.79-9.21-3.29-15.75-4.75-9.59-2.14-19.52-1.68-20.5-2-.26-.08-1-.86-.5-1M262 186c-1.98-.19-5.2-.57-6.5 0 0-.47-.5-.53-.5-1 9.71-.4 27.64 2.23 33.75 9-8.12-4.97-17.33-7.12-26.75-8m-7-10v-.5c11.38.1 23.32 1.45 33.5 6.75-10.93-3.6-21.94-5.78-33.5-6.25"/><path class="cls-60" d="M255.5 324.5c.03-2.16-.04-4.34 0-6.5.03-1.24 0-2.31 0-3.5 0-2.49.04-5.01 0-7.5v-1.5c0-2.48-.39-6.11.5-8l.5 27.75c-.6.69-.38-.99-1-.75"/><path class="cls-17" d="m255.5 195-.5-.5c8.87-.17 18.22 1.23 26 5.75-8.32-2.77-16.66-4.84-25.5-5.25"/><path d="M255 205c-.01-.33.01-.67 0-1 7.71.15 17.3 1.47 23.5 6.25-.42 1.14-11.59-6.47-23.5-5.25" style="fill:#bad1d8"/><path d="M255 175.5v.5c.11 2.98 0 6.02 0 9 0 .47.5.53.5 1 0 .35-1.4 4.64 0 7 .03.92-.68.39-.5 1.5l.5.5-1 1.5v-1c0-.48-.49-.52-.5-1-.05-2.91.03-6.04 0-9v-1c-.02-2.94 0-6.05 0-9v-.5c0-2.88.48-6.02.5-9 .93.51.44 7.96.5 9.5" style="fill:#372b28"/><path class="cls-60" d="M262 186c-1.18 1.35-5.75-.45-6.5 1.25-.14.31-.04 4.46 0 5.75-1.4-2.36 0-6.65 0-7 1.3-.57 4.52-.19 6.5 0"/><path d="M185.5 255v.5c-.5.05-.56.53-1 .5-.07-.5-.52-.56-.5-1z" style="fill:#594f3f"/><path d="M205.5 255c2.82.3 6.11-.22 9 0v.5c-3.09-.13-5.94-.05-9 .5-.05 0-.31-.77-1 0v-1.5c.44-.03.5.45 1 .5" style="fill:#4e6262"/><path class="cls-51" d="M254.5 166c-.02 2.98-.49 6.12-.5 9-44.16 1.77-79.1 35.11-79 80h-2c-2.41.02-5.34-.38-7.5.5v-.5c.57-49.92 39.6-87.63 89-89"/><path class="cls-12" d="M254 175v.5c-43.86 2.77-77.31 34.06-78.5 78.75h9c1.06-39.31 31.03-67.03 69.5-69.75v1c-38.28 2.31-68.19 30.38-68.5 69.5H175c-.1-44.89 34.84-78.23 79-80"/><path class="cls-51" d="M254 185.5c.03 2.96-.05 6.09 0 9-33.43 2.21-59.36 26.89-59.5 61h-.5c-2.76.21-5.78-.29-8.5 0v-.5c.31-39.12 30.22-67.19 68.5-69.5"/><path class="cls-3" d="M195.5 255.5c-.05 30.14 20.43 55.49 50.75 59.5 2.07.27 9.58 1.18 9.25-.5 0 1.19.03 2.26 0 3.5 1.08-3.13-6.83-1.56-13.75-3-28.86-6.01-46.51-30.7-47.75-59.5z"/><path class="cls-76" d="M204.5 255v1c.29 23.72 14.82 43.75 38.25 49 4.16.93 8.74.36 12.75 2 .04 2.49 0 5.01 0 7.5.33 1.68-7.18.77-9.25.5-30.32-4.01-50.8-29.36-50.75-59.5v-.5z"/><path class="cls-12" d="M254 194.5c0 .48.49.52.5 1-33.22 1.69-58.53 25.62-59 59.5v.5h-1c.14-34.11 26.07-58.79 59.5-61"/><path class="cls-3" d="M205.5 256c.36 29.25 20.81 49.18 50 49.5v1.5c-4.01-1.64-8.59-1.07-12.75-2-23.43-5.25-37.96-25.28-38.25-49 .69-.77.95 0 1 0"/><path class="cls-51" d="M254 184.5c-38.47 2.72-68.44 30.44-69.5 69.75h-9c1.19-44.69 34.64-75.98 78.5-78.75 0 2.95-.02 6.06 0 9"/><path class="cls-84" d="M256 297c-22.08-.11-41.65-19.29-41.5-41.5v-.5c.54-21.24 19.07-40.56 40.5-41 17.28-.36 36.19 14.09 40.5 30.75 6.55 25.31-12.95 52.38-39.5 52.25"/><path class="cls-59" d="m256 287 .5-25.5c6.35-.78 6.49-10.33-.5-10.5v-26c42.36 1.49 38.05 62.29 0 62"/><path class="cls-35" d="M254.5 225v26.5c-5.64 2.11-3.26 9.3.5 10-.55 3.05.68 22.78 0 23.75-.56.8-3.79-.45-4.5.75-37.17-6.36-32.47-58.89 4-61"/><path class="cls-61" d="M256.5 261.5 256 287c-1.75-.01-3.78-.71-5.5-1 .71-1.2 3.94.05 4.5-.75.68-.97-.55-20.7 0-23.75.4.07 1.08.05 1.5 0"/><path class="cls-1" d="M256 225v26c-.88-.02-.92.28-1.5.5V225c.81-.05.77-.03 1.5 0"/><path class="cls-84" d="M256 251c6.99.17 6.85 9.72.5 10.5-.42.05-1.1.07-1.5 0-3.76-.7-6.14-7.89-.5-10 .58-.22.62-.52 1.5-.5"/></g></g></svg>