<svg id="_图层_2" data-name="图层_2" xmlns="http://www.w3.org/2000/svg" viewBox="0 0 329.79 243.98"><defs><style>.cls-3{fill:none;stroke-linecap:round;stroke-linejoin:round;stroke-width:5.54px}.cls-5{fill:#f5d333}.cls-7{fill:#68c7e7}.cls-3{stroke:#364e65}</style></defs><g id="Layer_1"><g id="_生成式对象" data-name="生成式对象"><path d="M279.72 36.65c0-.15.02-.31.03-.46.14-4.19-.14-24.3.24-25.52.37-1.2 2.94-3.74 3.78-3.53.38.1 5.39 4.65 5.8 5.29 2.48 3.92 3.74 23.34 2.52 27.21-.47 1.5-3.57 3.59-7.06.5-.7-.62.64-3.77-5.3-3.5Z" style="fill:#f4e464"/><path class="cls-5" d="M279.75 36.19c0 .15-.02.31-.03.46-.17 4.56 3.32 13.57-6.79 17.05-10.24 3.53-18.67-9.63-10.08-17.03 5.24-4.52 10.49-1.59 14.05-.8.98.22 1.8.81 2.85.32"/><path class="cls-7" d="M300.14 58.35c3.69-1.09 6.68.4 9.97 1.87l2.38.24c-.13 5.48 3.17 11.41-4.79 16.13-12.03 7.14-23.2-13.6-7.56-18.24"/><path class="cls-5" d="M60.51 2.91c1.12.06 2.48-.7 2.78.81-.12 3.51-.32 7.02-.26 10.53l-2.29.09-35.69 8.79-2.06.21c.1-4.15-1.29-9.82 1.01-11.66 1.47-1.17 33.95-8.91 36.52-8.77Z"/><path class="cls-7" d="M10.88 53.31c3.48-.94 6.25.52 9.53 1.15l2.38.03c-.21 6.84 2.93 12.45-4.85 17.06-12.01 7.12-23.35-13.84-7.06-18.24m38.81-8.07c4.13-1.47 7.47.67 10.96 1.91.83.3 1.79.55 2.7.53-.28 6.81 1.38 12.01-6.1 15.9-11.74 6.11-21.8-13.27-7.56-18.34"/><path d="m137.75 168.72.57-.12.51.22c22.55 14.37 28.65 16.64 51.21.19l.59-.3.59.09c37.64.55 64.74 34.64 57.74 71.32-21-1.12-157.54 2.6-165.51.35-5.18-1.46-3.57-17.35-2.72-22.17 4.95-28.14 28.71-48.47 57.02-49.57Z" style="fill:#e77776"/><path class="cls-5" d="M224.3 78.7c5.69-.6 11.41 3.44 12.35 9.32.23 1.46.23 24.91 0 26.2-1.38 7.85-11.67 10.83-13.1 5.54-.54-1.98-.14-35.48.76-41.07Zm-121.95 0c.71-.07 3.49-.16 3.78.25-.57 7.65.76 37.54 0 40.31-1.23 4.52-10.52 4.62-12.6-3.53-.67-2.64-.86-21.81-.5-25.2.6-5.68 2.72-11.22 9.32-11.84Z"/><path class="cls-7" d="M180.71 117.81c6.2-1.3 11.67.79 12.67 7.65l1.65 4.03c-7.3.94-19.61 4.67-20.87-4.42-.62-4.52 2.79-6.47 6.55-7.26"/><path d="M326.03 42.4c3.94-10.74-4.61-13.98-13.2-17.51-.11 11.86-.06 23.71-.34 35.57-.13 5.48 3.17 11.41-4.79 16.13-12.03 7.14-23.2-13.6-7.56-18.24 3.69-1.09 6.68.4 9.97 1.87" style="fill:none;stroke-linecap:round;stroke-linejoin:round;stroke-width:5.54px;stroke:#354d64"/><path d="M279.99 10.67c-.38 1.22-.1 21.33-.24 25.52 0 .15-.02.31-.03.46-.17 4.56 3.32 13.57-6.79 17.05-10.24 3.53-18.67-9.63-10.08-17.03 5.24-4.52 10.49-1.59 14.05-.8" style="stroke:#364e64;fill:none;stroke-linecap:round;stroke-linejoin:round;stroke-width:5.54px"/><path class="cls-3" d="m138.32 168.61-.57.12c-28.32 1.1-52.07 21.44-57.02 49.57-.85 4.83-2.46 20.71 2.72 22.17 7.96 2.25 144.51-1.47 165.51-.35 7.01-36.68-20.09-70.77-57.74-71.32l-.59-.09"/><path class="cls-3" d="m190.64 168.71-.59.3c-22.56 16.45-28.66 14.18-51.21-.19l-.51-.22m54.12-17.82-1.81 17.93m-76.4-44.89c6.31 5.94 18.33 21.44 23.71 24.96 13.47 8.8 38.4 8.7 52.31.88 7.42-4.17 17.23-21.74 25.16-22.73"/><path class="cls-3" d="m193.57 125.92-.19-.47c-1-6.85-6.46-8.95-12.67-7.65-3.76.79-7.17 2.74-6.55 7.26 1.25 9.09 13.57 5.37 20.87 4.42 3.44-.45 6.92-.69 10.37-1.11m10.03-1.44 18.75 4.04m0 0 1 41.47M94.54 131.62v40.82"/><path class="cls-3" d="M111.17 70.62c-13.13-1-22.97 1.38-25.2 16.15-.21 1.42-.22 27.23 0 28.72 2.38 16.29 18.17 20.25 28.27 8.33m101.19 3.11c-.81-15.37 2.05-55.86.96-65.36-4.43-38.71-62.08-58.19-93.13-22.17-3.65 4.24-8.59 13.2-9.57 18.65-1.23 6.78 1.08 52.37.56 65.77"/><path class="cls-3" d="M115.73 86.07c27.54-3.41 43.99-17.05 60.22-38.89 8 16.18 20.89 28.87 37.28 36.5m-75.98 67.09 1.07 17.84"/><path class="cls-3" d="M235.71 70.36c-9.11-89.47-132.57-89.48-141.69 0m124.49.18c10.98.34 19.67-.45 24.39 11.69.92 2.37 1.35 31.23.81 34.27-1.33 7.45-4.93 9.25-9.52 14.47"/><path d="M60.65 47.16c-3.49-1.25-6.83-3.38-10.96-1.91-14.24 5.07-4.18 24.45 7.56 18.34 7.48-3.89 5.82-9.1 6.1-15.9.37-9.03-.17-23.63-.32-33.43-.06-3.51.14-7.02.26-10.53-.3-1.52-1.65-.75-2.78-.81-2.58-.14-35.06 7.59-36.52 8.77-2.3 1.84-.91 7.51-1.01 11.66-.25 10.38.12 20.76-.19 31.14-.21 6.84 2.93 12.45-4.85 17.06-12.01 7.12-23.35-13.84-7.06-18.24 3.48-.94 6.25.52 9.53 1.15m40.32-40.12-35.69 8.79" style="fill:none;stroke-linecap:round;stroke-linejoin:round;stroke-width:5.54px;stroke:#374f65"/></g></g></svg>