<svg id="_图层_2" data-name="图层_2" xmlns="http://www.w3.org/2000/svg" viewBox="0 0 229.95 214.01"><defs><style>.cls-8{fill:#fff}.cls-9{fill:#1e1f23}</style></defs><g id="Layer_1"><g id="_生成式对象" data-name="生成式对象"><path class="cls-9" d="M115.75.41c7.11-1.29 87.9.97 105.83 0 3.16 1.53 7.14 4.74 7.81 8.31 1.78 9.48-1.36 166.49 0 193.01-2.16 4.13-5.59 6.23-10.33 5.8-12.9 12.22-20.97.43-22.17 0-2.71-.96-54.69-.8-57.45 0-1.23.36-9.97 12.2-22.17 0-4.53.17-8.98-1.97-9.83-6.8-1.05-5.98.79-46.03 0-58.46-4.95-1-10.06-1.67-14.87-3.28-1.64-.54-10.52-5.31-10.83-4.79 1.87 5.94 14.39 38.18 14.61 40.31.79 7.62-11.13 2.86-22.17 4.54v27.21c20.62 5.27 11.74 12.74-5.04 3.02l-.76-30.49H47.21l-.76 30.49c-12.49 8.37-27.27 4.49-5.04-3.53v-26.71c-.7-.98-17.24.4-19.4-.25-5.65-1.72 9.37-31.18 8.57-37.29-.88-.63-16.1 11.23-17.64 12.6-6.19 5.52-11.15 15.15-12.85 9.32-2.06-7.09 28.42-26.71 33.76-31.24-44.28-2.63-36.81 6.17-20.66-35.78-14.23-52.35 39.97-81.19 73.34-54.17 22.53 18.25 22.64 54.01 2.52 74.08-7.11 7.09-14.97 6.56-4.03 13.61 4.66 3 21.2 8.56 22.43 5.8 1.22-21.78-1.61-115.64 0-125.98.64-4.15 4.07-8.56 8.31-9.32Z"/><path d="M72.92 126.9c1.37.05 1.46.71 2.27 2.27 1.65 3.18 11.37 35.15 15.12 43.84l-63.24.76c-.54-.4-.63-.61-.76-1.26-.44-2.32 13.9-38.85 14.61-44.85 21.63 6.25 30.36-.81 32-.76" style="fill:#f5dc68"/><path d="M52.76 37.19c20.86-1.8 42.95 12.94 45.61 34.52 1.06 8.56.23 8.04-2.27 6.8-4.31-2.15-20.93-17.94-24.94-22.43-2.1-2.35-5.04-9.81-8.82-8.82-2.8.73-22.43 29.29-45.86 33.76-2.33-21.38 14.89-41.99 36.28-43.84Zm-37.29 66.52c.65-.15 5.12 7.86 7.81 10.83 6.34 7 15.65 10.11 10.83 11.84-1.29.47-24-.81-27.46-1.26l8.82-21.42Z" style="fill:#666da7"/><path class="cls-8" d="M62.34 54.33c1.3-.24 11.44 12.2 18.65 18.65 2.64 2.36 16.03 11.74 16.63 12.6 3.45 4.95-6.15 23.21-16.13 30.74-27.11 20.47-60.95 2.32-65.26-29.48 18.61-5.39 33.68-18.04 46.11-32.5Z"/><path class="cls-9" d="M38.65 86.08c8.24-1.05 5.53 11.56-1.01 8.57-3.43-1.57-3.24-8.02 1.01-8.57m34.77 0c8.88-.57 4.23 12.58-2.02 8.06-2.96-2.14-1.98-7.8 2.02-8.06"/><path d="M209.49 206.52c.61-.01 2.5-.19 2.77.25-3.08 3.14-11.84-.03-2.77-.25" style="fill:#50576b"/><path class="cls-8" d="M203.69 152.6c-.95-1.6 1.37-6.31 1.51-7.81 2.79-29.56-29.1-51.49-56.19-36.54-7.3 4.03-19.82 17.89-16.88 26.2-.89.32-1.76 1.18-2.02.76 9.49-65.16 96.85-33.5 73.57 17.39Z"/><path d="M203.69 152.6c-3.57 7.82-15.28 18.91-23.43 21.67-23.14 7.82-49.18-9.44-50.14-34.02 2.09-.39 11.29-4.42 10.58-7.06-.92-3.45-6.81.63-8.57 1.26-2.94-8.32 9.58-22.17 16.88-26.2 27.09-14.95 58.98 6.97 56.19 36.54-.14 1.5-2.46 6.22-1.51 7.81" style="fill:#a1d4bf"/><path d="M165.84 128.72c.2-.06.4-.11.6-.16 11.48-2.67 15.95 14.79 4.4 17.84-11.56 3.05-16.29-14.34-4.99-17.69Z" style="stroke-linecap:round;stroke-linejoin:round;stroke:#1f1e23;fill:#f5dc68;stroke-width:4.03px"/><path d="M116.26 5.45c5.07-1.23 89.63.94 104.31 0 2.63 1.44 3.49 3.01 4.28 5.8-1.77 24.2 2.31 178.86 0 187.97-.25 1-1.99 2.42-2.77 3.28-15.11-.94-101.64 1.24-106.83 0-.41-.1-1.97-.81-2.27-1.26l.25-59.21c18.42-2.32 8.12-.69 16.38 15.87 4.4 8.82 15.03 17.88 24.44 20.91 40.85 13.16 76.24-33.56 49.64-68.28-24.31-31.73-76.23-17.04-78.61 23.18l-1.76 1.76-10.83.76c1-19.76-1.32-118.91 0-125.98.36-1.92 1.83-4.31 3.78-4.79Z" style="fill:#acdaf5"/><path style="stroke-linecap:round;stroke-linejoin:round;fill:#f5dc68;stroke:#1e1d21;stroke-width:5.04px" d="m126.39 22.39 83.34-.31 1.02 1.03v15.57l-1.02 1.03h-83.65z"/><path class="cls-9" d="M137.42 28.12c6.69-1.81 5.35 9.4 0 6.55-2.17-1.16-2.59-5.85 0-6.55"/><path class="cls-8" d="M145.99 29.64c5.69-2.29 5.66 7.42.5 6.05-1.91-.51-2.7-5.17-.5-6.05m13.61-.51c3.93-.69 4.12 6.51.5 6.55-2.54.03-3.53-6.02-.5-6.55"/><path style="stroke-linecap:round;stroke-linejoin:round;fill:#f5dc68;stroke-width:4.03px;stroke:#212026" d="m126.69 63.71 83.04-.53 1.02 1.03v15.64l-1.02 1.04-83.65-.19h0z"/><path class="cls-9" d="M136.92 68.94c6.09-2.45 6.4 6.46 2.52 7.06-2.98.46-5.31-5.93-2.52-7.06"/><path class="cls-8" d="M145.99 69.95c5.29-2.14 5.83 7.46.5 6.05-2.19-.58-2.29-5.33-.5-6.05m12.6 0c4.58-1.85 5.48 5.46 2.02 6.05-3.01.51-4.32-5.12-2.02-6.05"/><path d="M70.64 106.91c-2.1 7.96-10.35 13.23-18.34 10.05-2.46-.92-4.58-2.48-6.31-4.31-1.21-1.5-3.53-5.19-.85-6.17 1.93-.64 2.81 2 3.8 3.43 1.37 1.45 3 2.61 4.78 3.28 5.79 2.34 11.57-1.67 13.06-7.43.82-2.52 4.56-1.41 3.86 1.15" style="fill:#202026"/><path style="fill:none;stroke:#51566c;stroke-width:1.01px;stroke-linecap:round;stroke-linejoin:round" d="m128.14 207.6 1-.53"/></g></g></svg>